<svg xmlns="http://www.w3.org/2000/svg" viewBox="0 0 200 200">
  <defs>
    <style>
      .cls-1 {
        fill: none;
      }

      .cls-2 {
        fill: #515b1e;
      }
    </style>
  </defs>
  <rect class="cls-1" width="200" height="200"></rect>
  <g id="Layer_1" data-name="Layer 1">
    <g>
      <path class="cls-2" d="M137.99,64.72c-6.98,0-12.66,5.68-12.66,12.66s5.68,12.66,12.66,12.66,12.66-5.68,12.66-12.66-5.68-12.66-12.66-12.66ZM137.99,86.43c-4.99,0-9.05-4.06-9.05-9.05s4.06-9.05,9.05-9.05,9.05,4.06,9.05,9.05-4.06,9.05-9.05,9.05ZM175.98,48.44c-3.99,0-7.24,3.25-7.24,7.24v18.09h-3.8c-.68-6.48-3.21-11.82-7.43-15.59-4.09-3.66-9.56-5.74-15.9-6.07v-19.95c0-1-.81-1.81-1.81-1.81s-1.81.81-1.81,1.81v19.93c-8.6.33-16.11,2.89-19.9,4.43v-4.46h7.24c1,0,1.81-.81,1.81-1.81s-.81-1.81-1.81-1.81h-1.81v-14.47h1.81c1,0,1.81-.81,1.81-1.81s-.81-1.81-1.81-1.81h-18.09c-1,0-1.81.81-1.81,1.81s.81,1.81,1.81,1.81h1.81v14.47h-1.81c-1,0-1.81.81-1.81,1.81s.81,1.81,1.81,1.81h7.24v6.29c-11.91,7.94-28.6,6.4-28.76,6.39-.06,0-14.65,0-14.65,0-20.68,0-23.29-9.92-23.52-11.03-.09-3.91-3.3-7.07-7.23-7.07v-3.62h3.62c1,0,1.81-.81,1.81-1.81s-.81-1.81-1.81-1.81h-10.85c-1,0-1.81.81-1.81,1.81s.81,1.81,1.81,1.81h3.62v3.62c-3.99,0-7.24,3.25-7.24,7.24v39.8c0,3.99,3.25,7.24,7.24,7.24v14.47c0,1,.81,1.81,1.81,1.81s1.81-.81,1.81-1.81v-14.47c3.94,0,7.15-3.16,7.23-7.08.17-.46,3.44-7.39,32.52-7.39.65.04,9.52.62,18.3,4.59,11.9,5.38,17.93,14.19,17.93,26.17,0,.08,0,.17.02.25.06.47,1.36,11.42-11.4,19.65H25.83c-3.99,0-7.24,3.25-7.24,7.24v3.62c-1,0-1.81.81-1.81,1.81v18.09c0,1,.81,1.81,1.81,1.81h159.2c1,0,1.81-.81,1.81-1.81v-18.09c0-1-.81-1.81-1.81-1.81v-3.62c0-3.77-2.9-6.88-6.58-7.21-7.61-6-10.21-16.05-11.08-21.57-1.33-8.42-.41-16.07,1.19-19.26,3.77-7.53,3.81-18.44,3.81-18.9h3.62v18.09c0,3.99,3.25,7.24,7.24,7.24s7.24-3.25,7.24-7.24v-39.8c0-3.99-3.25-7.24-7.24-7.24ZM112.66,48.44v-14.47h7.24v14.47h-7.24ZM175.98,151.56v14.47H20.4v-14.47h155.58ZM170.53,140.7h.04c1.99,0,3.6,1.63,3.6,3.62v3.62H22.21v-3.62c0-2,1.62-3.62,3.62-3.62h144.7ZM158.08,94.67c-3.66,7.33-3.84,29.87,7.78,42.42h-54.94c9.89-8.62,9.13-18.63,8.98-20.01-.04-13.28-6.97-23.43-20.06-29.35-9.7-4.39-19.25-4.89-19.65-4.91-.03,0-.06,0-.09,0-14.17,0-24.3,1.9-30.56,4.72-5.32,2.39-5.62,6.07-5.62,6.13,0,2-1.62,3.62-3.62,3.62h-3.62c-2,0-3.62-1.62-3.62-3.62v-39.8c0-2,1.62-3.62,3.62-3.62h3.62c2,0,3.62,1.62,3.62,3.62,0,.09.3,14.47,27.14,14.47h14.39c8.38,0,16.43-.2,24.32-3.53,3.58-1.51,6.83-3.73,10.43-5.21,6.15-2.53,12.95-3.93,19.6-3.93,13.59,0,21.71,8.12,21.71,21.71,0,.1-.04,10.51-3.43,17.28h0ZM179.6,95.48c0,2-1.62,3.62-3.62,3.62s-3.62-1.62-3.62-3.62v-39.8c0-2,1.62-3.62,3.62-3.62s3.62,1.62,3.62,3.62v39.8Z"></path>
      <path class="cls-2" d="M177.79,170.38H18.59c-1.4,0-2.54-1.14-2.54-2.54v-18.09c0-1.15.76-2.12,1.81-2.43v-3c0-4.39,3.57-7.97,7.96-7.97h78.85c12.21-7.98,10.95-18.38,10.89-18.83-.02-.11-.02-.23-.02-.35,0-11.67-5.89-20.25-17.51-25.5-8.73-3.95-17.66-4.5-18.04-4.52-27.06,0-31.32,6.07-31.75,6.84-.17,3.98-3.32,7.24-7.23,7.6v13.78c0,1.4-1.14,2.54-2.54,2.54s-2.54-1.14-2.54-2.54v-13.78c-4.05-.37-7.24-3.79-7.24-7.93v-39.8c0-4.15,3.18-7.56,7.24-7.93v-2.19h-2.89c-1.4,0-2.54-1.14-2.54-2.54s1.14-2.54,2.54-2.54h10.85c1.4,0,2.54,1.14,2.54,2.54s-1.14,2.54-2.54,2.54h-2.89v2.19c3.96.37,7.14,3.7,7.23,7.75.21.94,2.7,10.32,22.79,10.32,14.63,0,14.67,0,14.72,0,.17.02,16.29,1.5,27.97-6.05v-5.16h-6.51c-1.4,0-2.54-1.14-2.54-2.54s1.14-2.54,2.54-2.54h1.08v-13.01h-1.08c-1.4,0-2.54-1.14-2.54-2.54s1.14-2.54,2.54-2.54h18.09c1.4,0,2.54,1.14,2.54,2.54s-1.14,2.54-2.54,2.54h-1.08v13.01h1.08c1.4,0,2.54,1.14,2.54,2.54s-1.14,2.54-2.54,2.54h-6.51v2.66c3.91-1.5,10.7-3.65,18.44-4.05v-19.24c0-1.4,1.14-2.54,2.54-2.54s2.54,1.14,2.54,2.54v19.26c6.22.45,11.62,2.59,15.66,6.21,4.18,3.74,6.8,9.06,7.6,15.41h2.42v-17.36c0-4.39,3.57-7.97,7.96-7.97s7.96,3.57,7.96,7.97v39.8c0,4.39-3.57,7.97-7.96,7.97s-7.96-3.57-7.96-7.97v-17.36h-2.17c-.07,2.65-.55,11.84-3.88,18.5-1.54,3.09-2.43,10.55-1.12,18.82.84,5.33,3.35,15.1,10.65,20.98,3.96.47,7.02,3.9,7.02,7.91v3c1.05.31,1.81,1.28,1.81,2.43v18.09c0,1.4-1.14,2.54-2.54,2.54ZM18.59,148.67c-.6,0-1.08.48-1.08,1.08v18.09c0,.6.49,1.08,1.08,1.08h159.2c.6,0,1.08-.48,1.08-1.08v-18.09c0-.6-.49-1.08-1.08-1.08h-.73v-4.35c0-3.34-2.6-6.18-5.92-6.48l-.22-.02-.17-.13c-7.82-6.17-10.46-16.45-11.35-22.03-1.35-8.58-.39-16.4,1.26-19.7,3.69-7.38,3.73-18.12,3.73-18.57v-.73h5.07v18.82c0,3.59,2.92,6.51,6.51,6.51s6.51-2.92,6.51-6.51v-39.8c0-3.59-2.92-6.51-6.51-6.51s-6.51,2.92-6.51,6.51v18.82h-5.19l-.07-.65c-.66-6.27-3.14-11.5-7.19-15.13-3.94-3.53-9.29-5.56-15.46-5.88l-.69-.04v-20.64c0-.6-.49-1.08-1.08-1.08s-1.08.48-1.08,1.08v20.64l-.7.03c-8.52.32-15.97,2.88-19.65,4.37l-1,.41v-6.27h7.96c.6,0,1.08-.48,1.08-1.08s-.49-1.08-1.08-1.08h-2.54v-15.93h2.54c.6,0,1.08-.48,1.08-1.08s-.49-1.08-1.08-1.08h-18.09c-.6,0-1.08.48-1.08,1.08s.49,1.08,1.08,1.08h2.54v15.93h-2.54c-.6,0-1.08.48-1.08,1.08s.49,1.08,1.08,1.08h7.96v7.41l-.32.22c-12.19,8.13-29.08,6.52-29.24,6.5-.2,0-9.64,0-14.58,0-21.24,0-23.99-10.43-24.23-11.62-.09-3.63-3.01-6.48-6.52-6.48h-.73v-5.08h4.34c.6,0,1.08-.48,1.08-1.08s-.49-1.08-1.08-1.08h-10.85c-.6,0-1.08.48-1.08,1.08s.49,1.08,1.08,1.08h4.35v5.08h-.73c-3.59,0-6.51,2.92-6.51,6.51v39.8c0,3.59,2.92,6.51,6.51,6.51h.73v15.2c0,.6.49,1.08,1.08,1.08s1.08-.48,1.08-1.08v-15.2h.73c3.51,0,6.43-2.86,6.51-6.37l.04-.24c.3-.8,3.75-7.86,33.2-7.87,1.01.06,9.78.66,18.6,4.65,12.18,5.51,18.36,14.54,18.36,26.83.08.63,1.45,12.02-11.71,20.51l-.18.12H25.83c-3.59,0-6.51,2.92-6.51,6.51v4.35h-.73ZM176.71,166.76H19.67v-15.93h157.03v15.93ZM21.13,165.3h154.12v-13.01H21.13v13.01ZM174.9,148.67H21.48v-4.35c0-2.4,1.95-4.35,4.35-4.35h144.74c2.39,0,4.33,1.96,4.33,4.35v4.35ZM22.94,147.21h150.51v-2.89c0-1.59-1.29-2.88-2.88-2.89l-.03-.73v.73H25.83c-1.6,0-2.89,1.3-2.89,2.89v2.89ZM167.53,137.81h-58.56l1.47-1.28c9.68-8.44,8.86-18.28,8.73-19.38-.04-13.05-6.83-22.97-19.63-28.77-9.58-4.33-18.99-4.83-19.39-4.84h-.01c-16.51,0-25.58,2.53-30.31,4.66-4.86,2.19-5.19,5.48-5.19,5.51,0,2.35-1.95,4.3-4.34,4.3h-3.62c-2.4,0-4.35-1.95-4.35-4.35v-39.8c0-2.4,1.95-4.35,4.35-4.35h3.62c2.4,0,4.34,1.95,4.34,4.35,0,.13.6,13.74,26.41,13.74h14.39c8.65,0,16.42-.26,24.04-3.47,1.72-.73,3.41-1.64,5.04-2.53,1.73-.94,3.52-1.91,5.4-2.68,6.33-2.6,13.21-3.98,19.88-3.98,14.05,0,22.44,8.39,22.44,22.44,0,.11-.04,10.68-3.5,17.61h0c-3.71,7.43-3.62,29.41,7.67,41.6l1.13,1.22ZM112.78,136.36h51.47c-10.63-12.84-10.58-34.52-6.83-42.01h0c3.3-6.61,3.35-16.85,3.35-16.96,0-13.14-7.84-20.98-20.98-20.98-6.49,0-13.17,1.34-19.33,3.87-1.8.74-3.56,1.69-5.26,2.62-1.66.9-3.38,1.83-5.17,2.59-7.86,3.32-15.8,3.59-24.61,3.59h-14.39c-27.55,0-27.86-15.05-27.86-15.2,0-1.59-1.3-2.89-2.89-2.89h-3.62c-1.6,0-2.89,1.3-2.89,2.89v39.8c0,1.59,1.3,2.89,2.89,2.89h3.62c1.59,0,2.89-1.3,2.89-2.89,0-.04.26-4.19,6.05-6.8,6.95-3.13,17.63-4.79,30.86-4.79.53.02,10.22.53,20.04,4.97,13.36,6.05,20.45,16.42,20.48,30.01.12,1.04.93,10.66-7.84,19.29ZM175.98,99.82c-2.4,0-4.34-1.95-4.34-4.35v-39.8c0-2.4,1.95-4.35,4.34-4.35s4.34,1.95,4.34,4.35v39.8c0,2.4-1.95,4.35-4.34,4.35ZM175.98,52.79c-1.59,0-2.89,1.3-2.89,2.89v39.8c0,1.59,1.3,2.89,2.89,2.89s2.89-1.3,2.89-2.89v-39.8c0-1.59-1.3-2.89-2.89-2.89ZM137.99,90.78c-7.38,0-13.39-6.01-13.39-13.39s6.01-13.39,13.39-13.39,13.39,6.01,13.39,13.39-6.01,13.39-13.39,13.39ZM137.99,65.45c-6.58,0-11.93,5.35-11.93,11.93s5.35,11.93,11.93,11.93,11.93-5.35,11.93-11.93-5.35-11.93-11.93-11.93ZM137.99,87.16c-5.39,0-9.77-4.38-9.77-9.77s4.38-9.77,9.77-9.77,9.77,4.38,9.77,9.77-4.38,9.77-9.77,9.77ZM137.99,69.07c-4.58,0-8.32,3.73-8.32,8.32s3.73,8.32,8.32,8.32,8.32-3.73,8.32-8.32-3.73-8.32-8.32-8.32ZM120.63,49.17h-8.69v-15.93h8.69v15.93ZM113.39,47.71h5.78v-13.01h-5.78v13.01Z"></path>
    </g>
  </g>
</svg>