<svg xmlns="http://www.w3.org/2000/svg" xmlns:xlink="http://www.w3.org/1999/xlink" viewBox="0 0 200 200"><metadata>AAA0RWp1bWIAAAAeanVtZGMycGEAEQAQgAAAqgA4m3EDYzJwYQAAADQfanVtYgAAAEdqdW1kYzJtYQARABCAAACqADibcQN1cm46dXVpZDo3Nzc4MWIzNS05ZmFhLTQ4MGQtYTdkMy1iNzFmMDlkOWZiYmYAAAABtGp1bWIAAAApanVtZGMyYXMAEQAQgAAAqgA4m3EDYzJwYS5hc3NlcnRpb25zAAAAANdqdW1iAAAAJmp1bWRjYm9yABEAEIAAAKoAOJtxA2MycGEuYWN0aW9ucwAAAACpY2JvcqFnYWN0aW9uc4GjZmFjdGlvbmtjMnBhLmVkaXRlZG1zb2Z0d2FyZUFnZW50bUFkb2JlIEZpcmVmbHlxZGlnaXRhbFNvdXJjZVR5cGV4U2h0dHA6Ly9jdi5pcHRjLm9yZy9uZXdzY29kZXMvZGlnaXRhbHNvdXJjZXR5cGUvY29tcG9zaXRlV2l0aFRyYWluZWRBbGdvcml0aG1pY01lZGlhAAAArGp1bWIAAAAoanVtZGNib3IAEQAQgAAAqgA4m3EDYzJwYS5oYXNoLmRhdGEAAAAAfGNib3KlamV4Y2x1c2lvbnOBomVzdGFydBjPZmxlbmd0aBlFtGRuYW1lbmp1bWJmIG1hbmlmZXN0Y2FsZ2ZzaGEyNTZkaGFzaFggifKR0U2Bd8KxKUBJ0zatnLf+4dSjaEeZr6xHkzp5fKpjcGFkSQAAAAAAAAAAAAAAAgxqdW1iAAAAJGp1bWRjMmNsABEAEIAAAKoAOJtxA2MycGEuY2xhaW0AAAAB4GNib3KoaGRjOnRpdGxlb0dlbmVyYXRlZCBJbWFnZWlkYzpmb3JtYXRtaW1hZ2Uvc3ZnK3htbGppbnN0YW5jZUlEeCx4bXA6aWlkOjg3MmI1OTNjLWJmZTQtNDIwOS05NTEyLTM3ODlhZmQyYjBjN29jbGFpbV9nZW5lcmF0b3J4N0Fkb2JlX0lsbHVzdHJhdG9yLzI5LjcgYWRvYmVfYzJwYS8wLjEyLjIgYzJwYS1ycy8wLjMyLjV0Y2xhaW1fZ2VuZXJhdG9yX2luZm+Bv2RuYW1lcUFkb2JlIElsbHVzdHJhdG9yZ3ZlcnNpb25kMjkuN/9pc2lnbmF0dXJleBlzZWxmI2p1bWJmPWMycGEuc2lnbmF0dXJlamFzc2VydGlvbnOComN1cmx4J3NlbGYjanVtYmY9YzJwYS5hc3NlcnRpb25zL2MycGEuYWN0aW9uc2RoYXNoWCBKacG9/6jeQTB4viTtzPgxOsHRZJU0VnGgDWsGszfUr6JjdXJseClzZWxmI2p1bWJmPWMycGEuYXNzZXJ0aW9ucy9jMnBhLmhhc2guZGF0YWRoYXNoWCDOzCW0pkIC8xmR8bffFL5wCx5xvNtr/KMO833jYHhyh2NhbGdmc2hhMjU2AAAwEGp1bWIAAAAoanVtZGMyY3MAEQAQgAAAqgA4m3EDYzJwYS5zaWduYXR1cmUAAAAv4GNib3LShFkM76IBOCQYIYJZBj0wggY5MIIEIaADAgECAhAVjf8nrCPSuCVLTmM3Hh2eMA0GCSqGSIb3DQEBCwUAMHUxCzAJBgNVBAYTAlVTMSMwIQYDVQQKExpBZG9iZSBTeXN0ZW1zIEluY29ycG9yYXRlZDEdMBsGA1UECxMUQWRvYmUgVHJ1c3QgU2VydmljZXMxIjAgBgNVBAMTGUFkb2JlIFByb2R1Y3QgU2VydmljZXMgRzMwHhcNMjQxMDE1MDAwMDAwWhcNMjUxMDE1MjM1OTU5WjCBqzETMBEGA1UEAwwKQWRvYmUgQzJQQTEoMCYGA1UECwwfQ29udGVudCBBdXRoZW50aWNpdHkgSW5pdGlhdGl2ZTETMBEGA1UECgwKQWRvYmUgSW5jLjERMA8GA1UEBwwIU2FuIEpvc2UxEzARBgNVBAgMCkNhbGlmb3JuaWExCzAJBgNVBAYTAlVTMSAwHgYJKoZIhvcNAQkBFhFjYWktb3BzQGFkb2JlLmNvbTCCASIwDQYJKoZIhvcNAQEBBQADggEPADCCAQoCggEBAMMQwYHQfT1y6TFz8OaDYGJBVgzz9Wkn7YfU2TyDTrTkJYadb+IfoTMWVhY5Gd0SUbqEga7EkmAWhH4gzCorIv7DsbhRygVf/5da790q464sQDVyJaoxnSGMnWjGhWv+aLxc/5uPklM9HHGM6sPr0gM7kckhp6YJvBpo/khCXC/xiB86lPW1MtzbIs2NqGNvMo99q25DqngA0jOdTqiCSpaBARRXsczLp86VPitrC6oXqEfBSTGkdHxl2v4Kkc4ZIgRYcFISz0vbOvkwp89PVGTJV23Rv4hSo91DxVA46odMLRYHM9uA61JWlnopbSh6LspgR7oq875jhtFbUj3qcTkCAwEAAaOCAYwwggGIMAwGA1UdEwEB/wQCMAAwDgYDVR0PAQH/BAQDAgeAMB4GA1UdJQQXMBUGCSqGSIb3LwEBDAYIKwYBBQUHAwQwgY4GA1UdIASBhjCBgzCBgAYJKoZIhvcvAQIDMHMwcQYIKwYBBQUHAgIwZQxjWW91IGFyZSBub3QgcGVybWl0dGVkIHRvIHVzZSB0aGlzIExpY2Vuc2UgQ2VydGlmaWNhdGUgZXhjZXB0IGFzIHBlcm1pdHRlZCBieSB0aGUgbGljZW5zZSBhZ3JlZW1lbnQuMF0GA1UdHwRWMFQwUqBQoE6GTGh0dHA6Ly9wa2ktY3JsLnN5bWF1dGguY29tL2NhXzdhNWMzYTBjNzMxMTc0MDZhZGQxOTMxMmJjMWJjMjNmL0xhdGVzdENSTC5jcmwwNwYIKwYBBQUHAQEEKzApMCcGCCsGAQUFBzABhhtodHRwOi8vcGtpLW9jc3Auc3ltYXV0aC5jb20wHwYDVR0jBBgwFoAUVyl6Mk3M/uQ1TsAfJHPOc1Or32owDQYJKoZIhvcNAQELBQADggIBAKq5ehS0PnPS2Gn9IoMk4BKzS/V5ponok96IShXrydwTe5FpGQ9c521cN151+bYEGiqvgIkgpXTcWBCqlPkavS69uhhoJQUgNLPw7NpMPti5Z05qIwBwh9wr1UW4Rhx62rIZp34MJhdU0pGlpOzcRIW7fcEKIhDJC0kHjOEuArvte+hcxHcvs85A5EVqnkjkDv6htlkbaP7yKt9BAn+r+hbWsySNQliKoQSuaCYqEjWy7AlSYWq91HGvQ9dbo3mVuJNozwrJ864k5halX7Xd5Nkl1EIO8EHEHF3ygSLVmbfM7Z9CGKGcyWtcfZfXb1ygCbzbA6M+Lg3q0vM/a8y7BEL8y9cj206ePv+pk0wFrKGg7ZpGYJt1/rH3z1918zBZn8yB4mH1I2uZyitm7OD+9bYrf9VPxQ9sXZac2UrqUagjBs/lE3lyPCKzeWUf/hfK0rJkQErY54IM/8A7nMHA5SW2OP0SqtwawIuC2pizCH8KP3Wy+eUw5SDnexwn5koGm3NVjtCo4ty1v1WZz/VRvFolBvlqrTdTkCAGZhVDlnV0Bi2oPiNTmmdQVyQzbCYl3INkxjQUhD6OOAJH5/TMxRisgeVLqzDeDR9KpWpoa4SoldPm+9xY8d99D/368QZs8eTaQEITSpLMfheM9UvAMtaNkwSJJHgBWw88vH/xcbsrWQalMIIGoTCCBImgAwIBAgIQDKi2VHuJ5tIGiXXNi5uJ4jANBgkqhkiG9w0BAQsFADBsMQswCQYDVQQGEwJVUzEjMCEGA1UEChMaQWRvYmUgU3lzdGVtcyBJbmNvcnBvcmF0ZWQxHTAbBgNVBAsTFEFkb2JlIFRydXN0IFNlcnZpY2VzMRkwFwYDVQQDExBBZG9iZSBSb290IENBIEcyMB4XDTE2MTEyOTAwMDAwMFoXDTQxMTEyODIzNTk1OVowdTELMAkGA1UEBhMCVVMxIzAhBgNVBAoTGkFkb2JlIFN5c3RlbXMgSW5jb3Jwb3JhdGVkMR0wGwYDVQQLExRBZG9iZSBUcnVzdCBTZXJ2aWNlczEiMCAGA1UEAxMZQWRvYmUgUHJvZHVjdCBTZXJ2aWNlcyBHMzCCAiIwDQYJKoZIhvcNAQEBBQADggIPADCCAgoCggIBALcfLr29CbNcSGz+DIOubAHqUXglpIA+iaexsohk2vaJdoH5+R3zlfx4mI2Yjs/k7hxVPg1zWnfOsRKoFXhlTJbyBxnvxB3CgcbxA13ZU1wecyBJH5dP0hp+yer01/DDcm30oveXkA1DmfX4wmqvjwRY0uWX3jZs4v8kfjLANIyiqFmq0kQhRRQaVBUFnwIC8lzssTp10DkLnY8TY+lrtF9CAdd/iB9dVnCnFhFlzOI+I4eoS8tvQndxKFRt6MXFXpzBfxDIA9rV48eDVG0zQdf4PfjEejcOTIaeZP4N2rTRMQMYbboAvk90g0oUhCX7NqrookVB7V90YTnCtbNTiYE+bNrPcRsuf7sVaXACGitiogyV1t8cTfJ1z5pNTUlbv5sbX2qa+E70iW4a1O1AN6oUGPZ+Dp9rGx9V9U8Puy03pPCggOWQ4IThET4iKfybfPd6qL9WxOayZGoHFYNFqo4fPTYQmgQPFckbd6L5RsginTVdlC925+b3RbE5O6qpqfZmpM9f0rlV2MSH+i+vvEVzmrV1mj5JrnLixNUzznj+0tTeSU6BQrPNJdg9hLcaEFxgkePCv3E1Eec1f30PoXSDs6KNJxZ++2PGHXdpO/8fQRO/KZqHjJ8OlV2H1wrlhII+qe46Wy6MUDKFjAlc5YO9llTYSRZUsOGg/H3Ons3hAgMBAAGjggE0MIIBMDASBgNVHRMBAf8ECDAGAQH/AgEAMDUGA1UdHwQuMCwwKqAooCaGJGh0dHA6Ly9jcmwuYWRvYmUuY29tL2Fkb2Jlcm9vdGcyLmNybDAOBgNVHQ8BAf8EBAMCAQYwFAYDVR0lBA0wCwYJKoZIhvcvAQEHMFcGA1UdIARQME4wTAYJKoZIhvcvAQIDMD8wPQYIKwYBBQUHAgEWMWh0dHBzOi8vd3d3LmFkb2JlLmNvbS9taXNjL3BraS9wcm9kX3N2Y2VfY3BzLmh0bWwwJAYDVR0RBB0wG6QZMBcxFTATBgNVBAMTDFNZTUMtNDA5Ni0zMzAdBgNVHQ4EFgQUVyl6Mk3M/uQ1TsAfJHPOc1Or32owHwYDVR0jBBgwFoAUphzhbVQkTKiPSHK/bqmM1eTsMdQwDQYJKoZIhvcNAQELBQADggIBAHHO5QeMptwt3MjgO2VeAJKBleuVICSvn2k4Xcl88bjapU0AZTslwRhcnr5Zt9wbBjtZgyX6M7si8k9vuyFcVhb1ucmDFfuUtTXgoTFyGZws1jV57oiEEnZjw/NkxFQpJ3kKRRE+DQ8EsaPP8pH8Oh8fH4bis9MI4Y5FjF5it3TWVyLmFXG8pxy8iTswPr1lN7B9k9Iz7RaexTd/RmZ3uGBtGlTJZx4bR4cWl1Qor9kVaEeMNULbyh0Kc3zzm0edwpe+Ii0rRlRSj8Ai2EUqWEReyer1Uv18VuC87zdm+lRCjnLyZjdy4acRUZd2GM1vncJ8LW7h1uliZZo332y5tTMSxRpRveWgs99V/MM6mDbL2/fuQF3L/C5evbS15jtTrbGP98CCzVBKeFS2UxN8Kpt5/ITJwpWYoismQkuy+BNJgpW8fgUUjB93laOo4L3uNf3ytxUDOEAjSJKRrOxY4y8vqbQvicslqnH7zkaxVfxjoAeYQ/huYISXCKXooA/5R7AkWLDmubBXakRIcCFi5klrTcHy2XSd3ZAnO8kaZt4GpeqkX05GKcUzccSsrym5GiQ6MUfb7Vqwt4ja0HfVb8Qt017bs6B26rpnqoHAKnn1hfburJ0OEPRZF83riQKzbkrzyIYAY1bYIB9MNL5v5ZgkGIgv2NdhngsX4GJS9927o2ZzaWdUc3ShaXRzdFRva2Vuc4GhY3ZhbFkOOTCCDjUwAwIBADCCDiwGCSqGSIb3DQEHAqCCDh0wgg4ZAgEDMQ8wDQYJYIZIAWUDBAIBBQAwgYEGCyqGSIb3DQEJEAEEoHIEcDBuAgEBBglghkgBhv1sBwEwMTANBglghkgBZQMEAgEFAAQgzoeNCHqb97JINu79VCs3jArJv0t2AmW22cJVG0hW5jECEAulz3xTwHuUzUtQuJ0BOyYYDzIwMjUwNzA5MDU1NDM3WgIIWkU+yuCYxN6gggvAMIIFCjCCAvKgAwIBAgIQDAsvx3p4z7rtZVZUwZokAzANBgkqhkiG9w0BAQsFADBjMQswCQYDVQQGEwJVUzEXMBUGA1UEChMORGlnaUNlcnQsIEluYy4xOzA5BgNVBAMTMkRpZ2lDZXJ0IFRydXN0ZWQgRzQgUlNBNDA5NiBTSEEyNTYgVGltZVN0YW1waW5nIENBMB4XDTI0MTEyMDAwMDAwMFoXDTM2MDIxOTIzNTk1OVowWzELMAkGA1UEBhMCVVMxETAPBgNVBAoTCERpZ2lDZXJ0MTkwNwYDVQQDEzBFQ0MyNTZfU0hBMjU2X1RpbWVzdGFtcF9SZXNwb25kZXJfQWRvYmVfTk9WXzIwMjQwWTATBgcqhkjOPQIBBggqhkjOPQMBBwNCAATQ/B6F+IGYpiqQQLxOfqkUmeTmSRWZzxSCtwM82siW/SbXazktRyEWmwIVs+8PJjhV9C4fUJ23IGRxsfzJM8leo4IBizCCAYcwDgYDVR0PAQH/BAQDAgeAMAwGA1UdEwEB/wQCMAAwFgYDVR0lAQH/BAwwCgYIKwYBBQUHAwgwIAYDVR0gBBkwFzAIBgZngQwBBAIwCwYJYIZIAYb9bAcBMB8GA1UdIwQYMBaAFLoW2W1NhS9zKXaaL3WMaiCPnshvMB0GA1UdDgQWBBTs0RxvfOegTeQxP4cACNSt1H02uzBaBgNVHR8EUzBRME+gTaBLhklodHRwOi8vY3JsMy5kaWdpY2VydC5jb20vRGlnaUNlcnRUcnVzdGVkRzRSU0E0MDk2U0hBMjU2VGltZVN0YW1waW5nQ0EuY3JsMIGQBggrBgEFBQcBAQSBgzCBgDAkBggrBgEFBQcwAYYYaHR0cDovL29jc3AuZGlnaWNlcnQuY29tMFgGCCsGAQUFBzAChkxodHRwOi8vY2FjZXJ0cy5kaWdpY2VydC5jb20vRGlnaUNlcnRUcnVzdGVkRzRSU0E0MDk2U0hBMjU2VGltZVN0YW1waW5nQ0EuY3J0MA0GCSqGSIb3DQEBCwUAA4ICAQCi7MEg8nkvLauLI7cAj21DgnMErh0mntCt4c4tsW9yJQZdZv1n8E1dueayb6IiZ8mYambImrTeuVKwGqUSITZTiVhtFRP3zRD9DpFk+Ex4P010IStH/eD1lgK6bVfaY0gvzcIRQP3CwIzqBZAE81c5QINjPs81cvJLOFKd/cX7zOhoQvrziNDy15UNT5fuURe2fioANQsRNYOmVXAdg2TK7OktYD+EH/D8gWr7nHQhRJMuD54GNjiZnNPnYXz6F3j7Bu2aVlirvQGAAsrW27Lqhg9ksW5+aL+g9/lyqRoMrWLSy4KDQaztPB+PKskecO1R7dbJbw7UBFVl+GbGaUc4x6HvVLNNL5hHjiLrf9A4zxe52e9ZqpSU7kDu7dsRXvm+uLLMXjHFSx/j0stIcxnQHwOL4A5RRuUH1Xw1wz2CiGvIHNcoYrkqfkb6TsKJU7ntDqNKFKZ349sBErTdXwVoId4zS/cV/A5rO1Kw5aNO/zUTCtQkbcMg88XGWqImaYmIHhIvHaE1nRdPWCa0QhrxvioeP45p4/zqd/JrVbNsoEuEBSRIPB3+ViLaoFlimZRUePzwKYvyTrd6g72mVtF4Prbbvy1kqCUmsZDMFqn33DR0N8Qzqkzir3bufNyI5k95Rq3NXcbfNYDx9qZ8gjCu4NHtSxAdJKswzb9gi6jyFTCCBq4wggSWoAMCAQICEAc2N7ckVHzYR6z9KGYqXlswDQYJKoZIhvcNAQELBQAwYjELMAkGA1UEBhMCVVMxFTATBgNVBAoTDERpZ2lDZXJ0IEluYzEZMBcGA1UECxMQd3d3LmRpZ2ljZXJ0LmNvbTEhMB8GA1UEAxMYRGlnaUNlcnQgVHJ1c3RlZCBSb290IEc0MB4XDTIyMDMyMzAwMDAwMFoXDTM3MDMyMjIzNTk1OVowYzELMAkGA1UEBhMCVVMxFzAVBgNVBAoTDkRpZ2lDZXJ0LCBJbmMuMTswOQYDVQQDEzJEaWdpQ2VydCBUcnVzdGVkIEc0IFJTQTQwOTYgU0hBMjU2IFRpbWVTdGFtcGluZyBDQTCCAiIwDQYJKoZIhvcNAQEBBQADggIPADCCAgoCggIBAMaGNQZJs8E9cklRVcclA8TykTepl1Gh1tKD0Z5Mom2gsMyD+Vr2EaFEFUJfpIjzaPp985yJC3+dH54PMx9QEwsmc5Zt+FeoAn39Q7SE2hHxc7Gz7iuAhIoiGN/r2j3EF3+rGSs+QtxnjupRPfDWVtTnKC3r07G1decfBmWNlCnT2exp39mQh0YAe9tEQYncfGpXevA3eZ9drMvohGS0UvJ2R/dhgxndX7RUCyFobjchu0CsX7LeSn3O9TkSZ+8OpWNs5KbFHc02DVzV5huowWR0QKfAcsW6Th+xtVhNef7Xj3OTrCw54qVI1vCwMROpVymWJy71h6aPTnYVVSZwmCZ/oBpHIEPjQ2OAe3VuJyWQmDo4EbP29p7mO1vsgd4iFNmCKseSv6De4z6ic/rnH1pslPJSlRErWHRAKKtzQ87fSqEcazjFKfPKqpZzQmiftkaznTqj1QPgv/CiPMpC3BhIfxQ0z9JMq++bPf4OuGQq+nUoJEHtQr8FnGZJUlD0UfM2SU2LINIsVzV5K6jzRWC8I41Y99xh3pP+OcD5sjClTNfpmEpYPtMDiP6zj9NeS3YSUZPJjAw7W4oiqMEmCPkUEBIDfV8ju2TjY+Cm4T72wnSyPx4JduyrXUZ14mCjWAkBKAAOhFTuzuldyF4wEr1GnrXTdrnSDmuZDNIztM2xAgMBAAGjggFdMIIBWTASBgNVHRMBAf8ECDAGAQH/AgEAMB0GA1UdDgQWBBS6FtltTYUvcyl2mi91jGogj57IbzAfBgNVHSMEGDAWgBTs1+OC0nFdZEzfLmc/57qYrhwPTzAOBgNVHQ8BAf8EBAMCAYYwEwYDVR0lBAwwCgYIKwYBBQUHAwgwdwYIKwYBBQUHAQEEazBpMCQGCCsGAQUFBzABhhhodHRwOi8vb2NzcC5kaWdpY2VydC5jb20wQQYIKwYBBQUHMAKGNWh0dHA6Ly9jYWNlcnRzLmRpZ2ljZXJ0LmNvbS9EaWdpQ2VydFRydXN0ZWRSb290RzQuY3J0MEMGA1UdHwQ8MDowOKA2oDSGMmh0dHA6Ly9jcmwzLmRpZ2ljZXJ0LmNvbS9EaWdpQ2VydFRydXN0ZWRSb290RzQuY3JsMCAGA1UdIAQZMBcwCAYGZ4EMAQQCMAsGCWCGSAGG/WwHATANBgkqhkiG9w0BAQsFAAOCAgEAfVmOwJO2b5ipRCIBfmbW2CFC4bAYLhBNE88wU86/GPvHUF3iSyn7cIoNqilp/GnBzx0H6T5gyNgL5Vxb122H+oQgJTQxZ822EpZvxFBMYh0MCIKoFr2pVs8Vc40BIiXOlWk/R3f7cnQU1/+rT4osequFzUNf7WC2qk+RZp4snuCKrOX9jLxkJodskr2dfNBwCnzvqLx1T7pa96kQsl3p/yhUifDVinF2ZdrM8HKjI/rAJ4JErpknG6skHibBt94q6/aesXmZgaNWhqsKRcnfxI2g55j7+6adcq/Ex8HBanHZxhOACcS2n82HhyS7T6NJuXdmkfFynOlLAlKnN36TU6w7HQhJD5TNOXrd/yVjmScsPT9rp/Fmw0HNT7ZAmyEhQNC3EyTN3B14OuSereU0cZLXJmvkOHOrpgFPvT87eK1MrfvElXvtCl8zOYdBeHo46Zzh3SP9HSjTx/no8Zhf+yvYfvJGnXUsHicsJttvFXseGYs2uJPU5vIXmVnKcPA3v5gA3yAWTyf7YGcWoWa63VXAOimGsJigK+2VQbc61RWYMbRiCQ8KvYHZE/6/pNHzV9m8BPqC3jLfBInwAM1dwvnQI38AC+R2AibZ8GV2QqYphwlHK+Z/GqSFD/yYlvZVVCsfgPrA8g4r5db7qS9EFUrnEw4d2zc4GqEr9u3WfPwxggG5MIIBtQIBATB3MGMxCzAJBgNVBAYTAlVTMRcwFQYDVQQKEw5EaWdpQ2VydCwgSW5jLjE7MDkGA1UEAxMyRGlnaUNlcnQgVHJ1c3RlZCBHNCBSU0E0MDk2IFNIQTI1NiBUaW1lU3RhbXBpbmcgQ0ECEAwLL8d6eM+67WVWVMGaJAMwDQYJYIZIAWUDBAIBBQCggdEwGgYJKoZIhvcNAQkDMQ0GCyqGSIb3DQEJEAEEMBwGCSqGSIb3DQEJBTEPFw0yNTA3MDkwNTU0MzdaMCsGCyqGSIb3DQEJEAIMMRwwGjAYMBYEFPcTAlRkG5zO0lEtYsW/nymEjPz4MC8GCSqGSIb3DQEJBDEiBCDwENXmOdVjYIe+MJ41uLGzn6Sl7pBU8wSX+ron00gDlTA3BgsqhkiG9w0BCRACLzEoMCYwJDAiBCC5eiZoHRjpuXxjPvhIOWRVdZeW2lBDRCyPjM3lJ+AAqTAKBggqhkjOPQQDAgRIMEYCIQCYXZYl+5WuG4KLi4veTgt7i/HTULmGR5uAXpG6BTFXAAIhAMuPXqHsOHo7BJetJZs9nu17B2PaIt46o8UhniHooSW2ZXJWYWxzoWhvY3NwVmFsc4FZCNgwggjUCgEAoIIIzTCCCMkGCSsGAQUFBzABAQSCCLowggi2MIGeohYEFMCJ1oeHPK/pFZB7d3KcDut+3NK0GA8yMDI1MDcwODIxMzcwNFowczBxMEkwCQYFKw4DAhoFAAQUu99zJXvbI6LHTold3/wRhaibiwEEFFcpejJNzP7kNU7AHyRzznNTq99qAhAVjf8nrCPSuCVLTmM3Hh2egAAYDzIwMjUwNzA4MjEzNzA0WqARGA8yMDI1MDcxNTIxMzcwNFowDQYJKoZIhvcNAQELBQADggIBAJL0/tHUsyrde7TVOl3kIxO1UTFGscMRBV32eDcgRXmncJGM4AXBz5m7qwpJp6Vo6ZvJ4apYEUyJ4dgvyC6wxTQ7GPyCGV3DDay4LIXwcgRwMFy8aaFtLPwp5lur/3WGo1T4S5NpZPbvbZrtNK50K5Q5daQPC1cpd+HIbRm/oCTtZUkgiVxtTg8ANiXka5UVmJQf3LlnwIiwbSpvSNUDjUb/cKnWSfZR0mvKLZsqyqnuk3GkiLCsV7O8QmiwQidGUHFQZo5O3IJrf/Bl4X6+iG5VBEGOWkZTAvu4TJ5/8+gg72GvfNgrZo954wWJr9wCRi8VpXnfTDUKEfp5iIJsDSB7CrOWZavOOieRIA9ex8pcXIMsIpxeMg+5ogNSjcrOhwHtGL7iLdutdrYITOGne6vXEKCOopOtSTQyEUZJR7IhMHrEtp9nfcgoowmTxySQiSLDtBiLhi6VkjHpV6jCMFDu/cFmw/QosnfNT5x4qXcHEgFCjY2TNP2qXBNnZNbPhNJ4mGelUhPPIqUzBvXrSGTWWQAFD8gSiKto4gOSOsc5SqinJ4Us3LGI4OOJZcsJoONbc0tvrhJ9EtGnIcOAEZcZdPDkdfLhEUA9qs9PYBhDfPagutOs1LEPXeRrGdSBcniAAWB+/FAkHF0t5TZI1qS7PNTISpO09PW+SivleZHEoIIF/TCCBfkwggX1MIID3aADAgECAhQ347gR30e1EGqILcKthISuTXkb1zANBgkqhkiG9w0BAQsFADB1MQswCQYDVQQGEwJVUzEjMCEGA1UEChMaQWRvYmUgU3lzdGVtcyBJbmNvcnBvcmF0ZWQxHTAbBgNVBAsTFEFkb2JlIFRydXN0IFNlcnZpY2VzMSIwIAYDVQQDExlBZG9iZSBQcm9kdWN0IFNlcnZpY2VzIEczMB4XDTI1MDQzMDIwMjgwOVoXDTI1MDcyOTIwMjgwOVowejELMAkGA1UEBhMCVVMxIzAhBgNVBAoTGkFkb2JlIFN5c3RlbXMgSW5jb3Jwb3JhdGVkMUYwRAYDVQQDEz1BZG9iZSBQcm9kdWN0IFNlcnZpY2VzIEczIE9DU1AgUmVzcG9uZGVyIDIwMjUtMDQtMzBUMjA6Mjg6MDlaMIICIjANBgkqhkiG9w0BAQEFAAOCAg8AMIICCgKCAgEA4vz/HntTTUqeDC2CrlNQODpqeh9dm5XYqSqm7fk3yOlNMb/62UBTmJhY/0dZ6n8f5qZzHtKdCogNVH7YqyVQy9SWIisydXSqcWB2tHx6Wi3LfXTY0yBf5lcqQ8+8gxtzefFoZk0Z6dbv+7tWAws2tm0bESVGRGxMFMpAnCFt42NT0PJYByrB4GZNdwnk2OMc3pyxSXYFuVuXg31PZbh9qz9RlrWeGs7295bOlOmDqSsSRTPrx/iKA4RsORjmdtoZ85tqaTk4iJzwnEaOQCR27dCuYVAQfSm68pJIX1vLCy3ACWO70WXE7BAu7o0g5a/gjIuwZHQYm9e6Q1zrqHwTZA/+6BsEo3FOmifnciL3FVPNfFC9+hnKH3imkR6Z3AQBKVQCsY1ZX9LIZtB7Q02GbAXlrDXlovp5cIf0DXd4dZ8rXNx8g7X3B3LYmz/yW0ODY0R+f5SLrRlXFd9ESvOdf5nJSNaPYMSUFwGmJozFCXy/sO1oxH4oKFJGbGdgBjLLM1sNs7aXIdCVSX/hZsuSTeTSVvA0Yn+XEdRztm81Z2vybfT9KsBzj8ZFPuqaTYH1ru0bysISs499/obwt83cD3GIvoGmODqxKp4kGVKRC1bjaD/tQL10Vmq02KChxiMUwHV7Nz84QXJuJFuWcdhG2JkAaRwZb+TjgDf2VZxWBMECAwEAAaN4MHYwHQYDVR0OBBYEFMCJ1oeHPK/pFZB7d3KcDut+3NK0MB8GA1UdIwQYMBaAFFcpejJNzP7kNU7AHyRzznNTq99qMA4GA1UdDwEB/wQEAwIHgDATBgNVHSUEDDAKBggrBgEFBQcDCTAPBgkrBgEFBQcwAQUEAgUAMA0GCSqGSIb3DQEBCwUAA4ICAQBu86vXEXhUFctVXY6+wmTFVwXUdLR/oO9zfyGDlBqsqMcq6Z3fZ5Ow7N7OFfRzyumDKvLkls9rEMbXtLcz/fkzdbSO3aMeSKyRs38XiUgN7F50cT3EsaToCSkLavBu7gkC3cuHXUa/tZTp6Py5dl8WUqsi/xQtPKFogwf2xqhWxddTx20LksgEQ0HwBfyP2R2KbTlYVUIAb7OSFy2S/uvrP0J0BnERXnndwtbzH4mq0pJ+n52x96WG+x0GsO3v85txnGwGQtR7MKLZ23TxPasBWc7lSZcW7Wm3PSLsMi8iB2JsZ82loIIATweb/zHTWXj9g7h6BC7yYiqBl8bjfDveRldpg3opY8gvPxGKDJ6V60bLeWFsa1rYMiokNH0uOsjrWX/MVF4bo8DDLNM65ExxqekFWl7Rsvk3jJzkWbAplm563IEz0UDE+L6feSf7ECP2NCoUmasr520kRhBAkvzsBY3jBJ638mUKz3o7YpeWoFDenyII/XMKTF4k0rEc3xga88OYWbjVExRL3/WeHOiT7f846Gsa/8ODX9kqKD0t9rJ88vTm2u6qQ2CqjpeHb9g+KfE8L4oVL3xluMbwRaBHQxEjEXybRn1b+Uv+14Zc/Le2lGZDJx4JjsdfAolkupLEHw8f4+TGWe0TobOK1EWyPI4H4ipjV/ohjL9Xd+XbBWNwYWRZCpgAAAAAAAAAAAAAAAAAAAAAAAAAAAAAAAAAAAAAAAAAAAAAAAAAAAAAAAAAAAAAAAAAAAAAAAAAAAAAAAAAAAAAAAAAAAAAAAAAAAAAAAAAAAAAAAAAAAAAAAAAAAAAAAAAAAAAAAAAAAAAAAAAAAAAAAAAAAAAAAAAAAAAAAAAAAAAAAAAAAAAAAAAAAAAAAAAAAAAAAAAAAAAAAAAAAAAAAAAAAAAAAAAAAAAAAAAAAAAAAAAAAAAAAAAAAAAAAAAAAAAAAAAAAAAAAAAAAAAAAAAAAAAAAAAAAAAAAAAAAAAAAAAAAAAAAAAAAAAAAAAAAAAAAAAAAAAAAAAAAAAAAAAAAAAAAAAAAAAAAAAAAAAAAAAAAAAAAAAAAAAAAAAAAAAAAAAAAAAAAAAAAAAAAAAAAAAAAAAAAAAAAAAAAAAAAAAAAAAAAAAAAAAAAAAAAAAAAAAAAAAAAAAAAAAAAAAAAAAAAAAAAAAAAAAAAAAAAAAAAAAAAAAAAAAAAAAAAAAAAAAAAAAAAAAAAAAAAAAAAAAAAAAAAAAAAAAAAAAAAAAAAAAAAAAAAAAAAAAAAAAAAAAAAAAAAAAAAAAAAAAAAAAAAAAAAAAAAAAAAAAAAAAAAAAAAAAAAAAAAAAAAAAAAAAAAAAAAAAAAAAAAAAAAAAAAAAAAAAAAAAAAAAAAAAAAAAAAAAAAAAAAAAAAAAAAAAAAAAAAAAAAAAAAAAAAAAAAAAAAAAAAAAAAAAAAAAAAAAAAAAAAAAAAAAAAAAAAAAAAAAAAAAAAAAAAAAAAAAAAAAAAAAAAAAAAAAAAAAAAAAAAAAAAAAAAAAAAAAAAAAAAAAAAAAAAAAAAAAAAAAAAAAAAAAAAAAAAAAAAAAAAAAAAAAAAAAAAAAAAAAAAAAAAAAAAAAAAAAAAAAAAAAAAAAAAAAAAAAAAAAAAAAAAAAAAAAAAAAAAAAAAAAAAAAAAAAAAAAAAAAAAAAAAAAAAAAAAAAAAAAAAAAAAAAAAAAAAAAAAAAAAAAAAAAAAAAAAAAAAAAAAAAAAAAAAAAAAAAAAAAAAAAAAAAAAAAAAAAAAAAAAAAAAAAAAAAAAAAAAAAAAAAAAAAAAAAAAAAAAAAAAAAAAAAAAAAAAAAAAAAAAAAAAAAAAAAAAAAAAAAAAAAAAAAAAAAAAAAAAAAAAAAAAAAAAAAAAAAAAAAAAAAAAAAAAAAAAAAAAAAAAAAAAAAAAAAAAAAAAAAAAAAAAAAAAAAAAAAAAAAAAAAAAAAAAAAAAAAAAAAAAAAAAAAAAAAAAAAAAAAAAAAAAAAAAAAAAAAAAAAAAAAAAAAAAAAAAAAAAAAAAAAAAAAAAAAAAAAAAAAAAAAAAAAAAAAAAAAAAAAAAAAAAAAAAAAAAAAAAAAAAAAAAAAAAAAAAAAAAAAAAAAAAAAAAAAAAAAAAAAAAAAAAAAAAAAAAAAAAAAAAAAAAAAAAAAAAAAAAAAAAAAAAAAAAAAAAAAAAAAAAAAAAAAAAAAAAAAAAAAAAAAAAAAAAAAAAAAAAAAAAAAAAAAAAAAAAAAAAAAAAAAAAAAAAAAAAAAAAAAAAAAAAAAAAAAAAAAAAAAAAAAAAAAAAAAAAAAAAAAAAAAAAAAAAAAAAAAAAAAAAAAAAAAAAAAAAAAAAAAAAAAAAAAAAAAAAAAAAAAAAAAAAAAAAAAAAAAAAAAAAAAAAAAAAAAAAAAAAAAAAAAAAAAAAAAAAAAAAAAAAAAAAAAAAAAAAAAAAAAAAAAAAAAAAAAAAAAAAAAAAAAAAAAAAAAAAAAAAAAAAAAAAAAAAAAAAAAAAAAAAAAAAAAAAAAAAAAAAAAAAAAAAAAAAAAAAAAAAAAAAAAAAAAAAAAAAAAAAAAAAAAAAAAAAAAAAAAAAAAAAAAAAAAAAAAAAAAAAAAAAAAAAAAAAAAAAAAAAAAAAAAAAAAAAAAAAAAAAAAAAAAAAAAAAAAAAAAAAAAAAAAAAAAAAAAAAAAAAAAAAAAAAAAAAAAAAAAAAAAAAAAAAAAAAAAAAAAAAAAAAAAAAAAAAAAAAAAAAAAAAAAAAAAAAAAAAAAAAAAAAAAAAAAAAAAAAAAAAAAAAAAAAAAAAAAAAAAAAAAAAAAAAAAAAAAAAAAAAAAAAAAAAAAAAAAAAAAAAAAAAAAAAAAAAAAAAAAAAAAAAAAAAAAAAAAAAAAAAAAAAAAAAAAAAAAAAAAAAAAAAAAAAAAAAAAAAAAAAAAAAAAAAAAAAAAAAAAAAAAAAAAAAAAAAAAAAAAAAAAAAAAAAAAAAAAAAAAAAAAAAAAAAAAAAAAAAAAAAAAAAAAAAAAAAAAAAAAAAAAAAAAAAAAAAAAAAAAAAAAAAAAAAAAAAAAAAAAAAAAAAAAAAAAAAAAAAAAAAAAAAAAAAAAAAAAAAAAAAAAAAAAAAAAAAAAAAAAAAAAAAAAAAAAAAAAAAAAAAAAAAAAAAAAAAAAAAAAAAAAAAAAAAAAAAAAAAAAAAAAAAAAAAAAAAAAAAAAAAAAAAAAAAAAAAAAAAAAAAAAAAAAAAAAAAAAAAAAAAAAAAAAAAAAAAAAAAAAAAAAAAAAAAAAAAAAAAAAAAAAAAAAAAAAAAAAAAAAAAAAAAAAAAAAAAAAAAAAAAAAAAAAAAAAAAAAAAAAAAAAAAAAAAAAAAAAAAAAAAAAAAAAAAAAAAAAAAAAAAAAAAAAAAAAAAAAAAAAAAAAAAAAAAAAAAAAAAAAAAAAAAAAAAAAAAAAAAAAAAAAAAAAAAAAAAAAAAAAAAAAAAAAAAAAAAAAAAAAAAAAAAAAAAAAAAAAAAAAAAAAAAAAAAAAAAAAAAAAAAAAAAAAAAAAAAAAAAAAAAAAAAAAAAAAAAAAAAAAAAAAAAAAAAAAAAAAAAAAAAAAAAAAAAAAAAAAAAAAAAAAAAAAAAAAAAAAAAAAAAAAAAAAAAAAAAAAAAAAAAAAAAAAAAAAAAAAAAAAAAAAAAAAAAAAAAAAAAAAAAAAAAAAAAAAAAAAAAAAAAAAAAAAAAAAAAAAAAAAAAAAAAAAAAAAAAAAAAAAAAAAAAAAAAAAAAAAAAAAAAAAAAAAAAAAAAAAAAAAAAAAAAAAAAAAAAAAAAAAAAAAAAAAAAAAAAAAAAAAAAAAAAAAAAAAAAAAAAAAAAAAAAAAAAAAAAAAAAAAAAAAAAAAAAAAAAAAAAAAAAAAAAAAAAAAAAAAAAAAAAAAAAAAAAAAAAAAAAAAAAAAAAAAAAAAAAAAAAAAAAAAAAAAAAAAAAAAAAAAAAAAAAAAAAAAAAAAAAAAAAAAAAAAAAAAAAAAAAAAAAAAAAAAAAAAAAAAAAAAAAAAAAAAAAAAAAAAAAAAAAAAAAAAAAAAAAAAAAAAAAAAAAAAAAAAAAAAAAAAAAAAAAAAAAAAAAAAAAAAAAAAAAAAAAAAAAAAAAAAAAAAAAAAAAAAAAAAAAAAAAAAAAAAAAAAAAAAAAAAAAAAAAAAAAAAAAAAAAAAAAAAAAAAAAAAAAAAAAAAAAAAAAAAAAAAAAAAAAAAAAAAAAAAAAAAAAAAAAAAAAAAAAAAAAAAAAAAAAAAAAAAAAAAAAAAAAAAAAAAAAAAAAAAAAAAAAAAAAD2WQEAmkdX3esDN7Vy4/4rZURyU1cvsbjXxrD9Gs/uDeGiFmijjkKaAhh/80WrjJot3tYNJROxtyVbbXVWDkE9utFKOkQ4Vhe8cWmy7+IlHY3XrCbGmDICTlZYN3d8W4GAktuWv3JsMdMLbeHmVKqa04DljBUaK9wQW+MRoMedSbKZHrd8vdletwLLoUGLvSNi1cYRLQkJ4G9NGLaYKAywYd4qEeF4dw6RGNlQJZb5nZABIj5nm1CQ4Ws/Nycw18LqDEBDFzQeiUmrWfBjG8uICa0I8qQTR0dfNDtNcW0SwwunpRIAIp4CluefqMNVqCmjhiU4hVRVo9E44+G8C0z9ZjUSIQ==</metadata>
  <defs>
    <style>
      .cls-1 {
        fill: none;
      }

      .cls-2 {
        fill: #515b1e;
        fill-rule: evenodd;
      }

      .cls-3 {
        clip-path: url(#clippath);
      }
    </style>
    <clipPath id="clippath">
      <rect class="cls-1" x="-728.5" y="161.01" width="604.75" height="405.09"></rect>
    </clipPath>
  </defs>
  <rect class="cls-1" width="200" height="200"></rect>
  <g id="Layer_1" data-name="Layer 1">
    <path class="cls-2" d="M172.38,67.24c-1.82-2.5-4.41-4.59-7.33-6.03-2.75-19.9-12.14-30.42-30.29-29.06l1.27-5.83c.33-1.52-.63-3.02-2.15-3.35-1.52-.33-3.02.63-3.35,2.15l-1.7,7.82c-9.81,1.83-20.72,6.17-31.96,10.63-20.63,8.19-41.97,16.67-53.83,7.17-5.47-4.38-4.99-9.32-3.62-12.7,2.14-5.27,7.16-8.61,10.32-8.31,4.06.39,8.76,2.65,12.62,4.04,1.73.62,3.58-.56,3.76-2.39.37-3.95.31-8.72,1.6-12.17,1.33-3.56,3.64-5.83,6.49-6.41,2.41-.49,4.87.3,6.59,2.11,3.19,3.37,4.12,17.26,3.34,24.96-.16,1.55.97,2.93,2.52,3.09,1.54.16,2.93-.97,3.09-2.52.47-4.63,1.03-23.19-4.86-29.4-3.06-3.23-7.47-4.64-11.79-3.76-4.76.96-8.64,4.59-10.65,9.95-1.18,3.14-1.46,6.55-1.67,9.87-3.16-1.25-6.93-2.65-10.5-2.99-6.09-.59-13.16,4.6-16.07,11.8-2.86,7.07-.87,14.25,5.32,19.21,14.42,11.54,37.3,2.45,59.43-6.34,9.76-3.88,19.69-7.82,28.56-9.8l-6.98,32.12c-2.08-2.61-5.24-4.09-8.57-3.98l-22.49.73c-5.35.17-9.93,3.16-12.24,7.98-3.62,7.55-5.07,14.99-4.32,22.14-1.22.51-2.36,1.26-3.35,2.25h0c-2.08,2.08-3.16,4.86-3.06,7.81-4.68-.17-8.99,2.79-10.41,7.35l-13.82-13.82c-4.09-4.09-10.76-4.09-14.85,0-4.09,4.09-4.09,10.76,0,14.86l45.28,44.99c3.27,3.23,7.58,4.62,12.12,3.89l5.62-.9c2.25-.36,4.25.1,6.13,1.39l9.27,6.39c-2.35,2.47-2.3,6.36.1,8.76l10.13,10.13c2.45,2.45,6.43,2.45,8.88,0l37.67-37.67c2.45-2.45,2.45-6.43,0-8.88l-10.13-10.13c-1.86-1.86-4.67-2.35-7.04-1.27l-4.93-43.28c-.88-8.18-10.23-12.17-16.69-7.38l9.68-44.51c5.87-.67,11.07-.13,15.17,2.34,5.27,3.18,8.69,9.42,10.4,19-4.39-.65-8.55.36-11.65,2.9-4.82,3.95-5.95,11.61-1.49,16.2,2.77,2.84,5.68,3.13,7.63,2.87,4.26-.57,7.69-4.21,9.47-7.43,1.02-1.83,1.71-3.86,2.07-6.05,1.07.8,2.01,1.73,2.75,2.75,3.76,5.17,2.23,8.79-.82,14.74-.82,1.61-1.68,3.28-2.37,5.04-2.56,6.55-3.53,15.62-3.58,21.92-.03,3.48.23,6.93.76,10.25.25,1.55,1.71,2.58,3.22,2.34,1.54-.24,2.58-1.69,2.34-3.22-.48-3.01-.71-6.15-.69-9.32.04-5.54.9-14.07,3.19-19.91.59-1.5,1.34-2.97,2.13-4.52,2.83-5.52,6.35-12.4.36-20.62h0ZM119.61,92l1.72,16.98c-8.94-4.44-17.02-11.14-24.48-20.32l15.78-.51c2.42-.08,4.68-.97,6.49-2.54.47.33,1.02.51,1.6.52-.91,1.75-1.33,3.77-1.12,5.87h0ZM72.12,107.69c0-4.34,5.26-6.49,8.3-3.44l14.97,14.97c3.01,3.01.95,8.3-3.44,8.3-1.31,0-2.53-.5-3.44-1.42l-14.97-14.97c-.91-.91-1.42-2.14-1.42-3.44h0ZM61.25,118.56c0-1.31.5-2.53,1.42-3.44,1.9-1.9,4.99-1.9,6.89,0l14.97,14.97c3.04,3.04.9,8.3-3.44,8.3-1.31,0-2.53-.5-3.44-1.42l-14.97-14.97c-.91-.91-1.42-2.14-1.42-3.44h0ZM148.5,138.41l10.13,10.13c.25.25.25.66,0,.91l-37.67,37.67c-.25.25-.66.25-.91,0l-10.13-10.13c-.25-.25-.25-.66,0-.91l37.67-37.67c.25-.25.66-.25.91,0ZM129.57,86.09c2.65-.27,5.04,1.66,5.34,4.39l5.39,47.26-30.42,30.42-10.12-6.97c-3.08-2.12-6.51-2.9-10.21-2.31l-5.62.9c-2.76.44-5.28-.37-7.27-2.33l-45.26-44.97c-1.9-1.9-1.9-4.99,0-6.89,1.9-1.9,4.99-1.9,6.89,0l35.37,35.37c4.09,4.09,10.76,4.09,14.85,0,2.14-2.14,3.16-4.99,3.06-7.81,2.83.1,5.66-.92,7.81-3.06,4.09-4.09,4.09-10.76,0-14.85l-14.97-14.97c-1.66-1.66-3.75-2.65-5.91-2.96-.61-6.07.67-12.44,3.81-18.99,1.41-2.94,4.09-4.69,7.34-4.79l22.49-.73c4.24-.14,6.71,4.98,3.7,8.19-.89.95-2.1,1.5-3.39,1.54l-21.28.69c-2.25.07-3.51,2.67-2.18,4.48,9.24,12.59,19.41,21.42,30.99,26.89-4.01,5.42-5.15,11.89-3.38,19.29.37,1.53,1.9,2.44,3.39,2.09,1.51-.36,2.45-1.88,2.09-3.39-1.64-6.88-.16-12.44,4.52-17,.6-.59.93-1.46.84-2.3l-2.21-21.83c-.27-2.67,1.68-5.07,4.35-5.34h0ZM158.09,71.13c-1.38,2.5-3.51,4.34-5.29,4.58-.63.08-1.61.05-2.84-1.22-3.08-3.16-.32-10.7,8-9.63.59.07,1.17.19,1.76.34-.14,2.23-.68,4.22-1.62,5.93Z"></path>
    <g class="cls-3">
      <image width="6016" height="4016" transform="translate(-890.49 38.32) scale(.15)" xlink:href="../../../JAN/15/9273240 copy.jpg"></image>
    </g>
  </g>
</svg>