<svg xmlns="http://www.w3.org/2000/svg" viewBox="0 0 200 200">
  <defs>
    <style>
      .cls-1 {
        fill: none;
      }

      .cls-2 {
        fill: #515b1e;
      }
    </style>
  </defs>
  <rect class="cls-1" width="200" height="200"></rect>
  <g id="Layer_1" data-name="Layer 1">
    <g>
      <g>
        <g>
          <path class="cls-2" d="M40.93,113.12c-1.12,0-2.06-.56-2.62-1.68l-19.64-46.76c-2.24-5.24.37-11.41,5.61-13.65,5.24-2.24,11.41.37,13.65,5.61l18.33,43.39c.56,1.5,0,2.99-1.5,3.74-1.5.56-2.99,0-3.74-1.5l-18.33-43.58c-1.12-2.43-3.93-3.55-6.36-2.62-2.43.94-3.55,3.93-2.62,6.36l19.64,46.76c.56,1.5,0,2.99-1.5,3.74-.19,0-.56.19-.94.19Z"></path>
          <path class="cls-2" d="M40.93,113.43c-1.27,0-2.3-.66-2.9-1.85l-19.64-46.77c-2.27-5.3.37-11.74,5.77-14.05,5.3-2.28,11.74.37,14.06,5.77l18.33,43.39c.63,1.67-.03,3.33-1.64,4.14-1.7.64-3.35-.03-4.16-1.63l-18.33-43.59c-1.04-2.26-3.67-3.33-5.97-2.45-1.08.42-1.93,1.28-2.4,2.45-.45,1.13-.47,2.41-.04,3.52l19.63,46.75c.63,1.67-.04,3.33-1.64,4.14l-.14.03s-.15.03-.23.06c-.2.06-.44.13-.7.13ZM28.19,50.55c-1.28,0-2.56.25-3.78.77-5.09,2.18-7.59,8.25-5.45,13.25l19.64,46.76c.49.97,1.3,1.49,2.34,1.49.17,0,.36-.05.53-.1.11-.03.22-.06.32-.08,1.29-.67,1.8-1.97,1.29-3.33l-19.63-46.74c-.48-1.26-.47-2.7.04-3.98.53-1.32,1.5-2.31,2.75-2.79,2.6-1,5.57.22,6.75,2.78l18.33,43.59c.66,1.31,1.97,1.85,3.35,1.33,1.3-.65,1.83-1.97,1.32-3.34l-18.32-43.38c-1.65-3.85-5.52-6.22-9.47-6.22Z"></path>
        </g>
        <g>
          <path class="cls-2" d="M53.65,103.77c-1.12,0-2.06-.56-2.62-1.68l-22.44-53.49c-1.12-2.62-1.12-5.42,0-8.04,1.12-2.62,2.99-4.68,5.61-5.61,5.24-2.24,11.41.37,13.65,5.61l21.32,50.87c.56,1.5,0,2.99-1.5,3.74-1.5.56-2.99,0-3.74-1.5l-21.32-51.06c-.94-2.43-3.93-3.55-6.36-2.62-1.12.56-2.06,1.5-2.62,2.62-.56,1.12-.56,2.43,0,3.74l22.44,53.49c.56,1.5,0,2.99-1.5,3.74-.19.19-.56.19-.94.19Z"></path>
          <path class="cls-2" d="M53.65,104.08c-1.27,0-2.29-.66-2.9-1.85l-22.45-53.51c-1.16-2.71-1.16-5.57,0-8.28,1.22-2.87,3.23-4.86,5.79-5.78,5.28-2.27,11.72.38,14.04,5.78l21.32,50.87c.63,1.67-.03,3.33-1.64,4.13-1.69.64-3.35-.02-4.16-1.63l-21.33-51.08c-.85-2.2-3.63-3.35-5.97-2.45-1.04.52-1.92,1.4-2.45,2.47-.52,1.05-.52,2.25,0,3.48l22.44,53.49c.62,1.66-.02,3.3-1.6,4.12-.28.24-.7.24-1.11.24ZM38.1,34.46c-1.27,0-2.56.25-3.78.77-2.41.86-4.29,2.74-5.45,5.45-1.09,2.55-1.09,5.25,0,7.8l22.44,53.49c.49.97,1.3,1.49,2.34,1.49.26,0,.62,0,.72-.1l.08-.06c1.33-.67,1.86-1.98,1.35-3.36l-22.44-53.48c-.59-1.38-.59-2.8,0-4,.6-1.19,1.57-2.16,2.76-2.76,2.71-1.05,5.8.24,6.79,2.78l21.32,51.05c.66,1.31,1.98,1.84,3.35,1.33,1.3-.65,1.83-1.97,1.32-3.34l-21.32-50.86c-1.65-3.85-5.52-6.22-9.47-6.22Z"></path>
        </g>
        <g>
          <path class="cls-2" d="M66.37,95.17c-1.12,0-2.06-.56-2.62-1.68l-17.02-40.77c-1.12-2.62-1.12-5.42,0-8.04,1.12-2.62,2.99-4.68,5.61-5.61,5.24-2.24,11.41.37,13.65,5.61l17.95,42.27c.56,1.5,0,2.99-1.5,3.74-1.5.56-2.99,0-3.74-1.5l-17.95-42.27c-1.12-2.43-3.93-3.55-6.36-2.62-1.12.56-2.06,1.5-2.62,2.62-.56,1.12-.56,2.43,0,3.74l17.02,40.77c.56,1.5,0,2.99-1.5,3.74h-.94Z"></path>
          <path class="cls-2" d="M67.37,95.48h-1.01c-1.27,0-2.3-.66-2.9-1.85l-17.03-40.79c-1.16-2.71-1.16-5.57,0-8.28,1.23-2.87,3.23-4.87,5.79-5.78,2.58-1.11,5.49-1.11,8.17,0,2.66,1.11,4.75,3.16,5.87,5.77l17.96,42.27c.63,1.67-.03,3.33-1.64,4.14-1.69.64-3.35-.02-4.16-1.63l-17.96-42.28c-1.04-2.26-3.66-3.33-5.96-2.45-1.04.52-1.92,1.4-2.45,2.47-.53,1.05-.52,2.25,0,3.48l17.02,40.77c.63,1.67-.03,3.33-1.64,4.13l-.07.03ZM56.28,38.56c-1.3,0-2.6.26-3.82.79-2.41.86-4.29,2.74-5.45,5.45-1.09,2.55-1.09,5.25,0,7.8l17.02,40.77c.49.97,1.3,1.49,2.34,1.49h.86c1.29-.68,1.79-1.97,1.28-3.32l-17.01-40.76c-.6-1.38-.59-2.8,0-4,.59-1.18,1.57-2.16,2.76-2.76,2.63-1.01,5.6.2,6.77,2.77l17.96,42.28c.66,1.32,1.99,1.84,3.35,1.33,1.3-.65,1.83-1.97,1.32-3.34l-17.95-42.26c-1.06-2.47-3.02-4.4-5.54-5.45-1.26-.53-2.58-.79-3.89-.79Z"></path>
        </g>
        <g>
          <path class="cls-2" d="M77.03,166.05c-20.2,0-36.28-15.71-43.39-32.73-6.55-13.09-11.97-21.32-17.77-26.93-3.93-3.74-3.55-7.29-1.68-9.35,3.74-4.3,13.47-3.37,20.01,1.68,3.18,2.62,6.36,5.98,8.98,10.1.94,1.31.56,2.99-.75,3.93-1.31.94-2.99.56-3.93-.75-2.99-4.49-5.8-7.11-7.85-8.6-3.74-2.99-8.04-3.55-10.47-3.18-1.31.19-1.68.56-1.87.75,0,0,.19.56,1.31,1.68,6.36,6.17,12.16,14.77,19.08,28.8,7.48,17.95,25.62,34.23,47.88,28.05,4.68-1.31,10.47-6.55,10.66-9.54,0-1.5,1.31-2.81,2.99-2.62,1.5,0,2.81,1.31,2.62,2.99-.19,5.98-8.04,12.9-14.59,14.77-3.93.37-7.67.94-11.22.94Z"></path>
          <path class="cls-2" d="M77.03,166.36c-20.67,0-36.83-16.53-43.67-32.92-6.5-13-11.96-21.28-17.7-26.83-4.19-3.99-3.53-7.76-1.7-9.78,3.78-4.34,13.71-3.54,20.43,1.65,3.58,2.95,6.63,6.38,9.04,10.18.49.68.67,1.51.51,2.33-.16.8-.64,1.51-1.34,2.01-1.43,1.02-3.3.67-4.36-.82-3.07-4.61-5.93-7.18-7.79-8.53-3.64-2.91-7.8-3.5-10.25-3.12-.91.13-1.32.35-1.54.52.14.23.45.7,1.15,1.39,6.48,6.29,12.39,15.2,19.14,28.88,7.39,17.74,25.42,34.02,47.52,27.89,4.5-1.26,10.25-6.37,10.43-9.26,0-.81.36-1.61.99-2.17.64-.57,1.5-.83,2.34-.74h0c.79,0,1.59.36,2.15.98.57.64.83,1.47.74,2.35-.19,6.13-8.12,13.12-14.81,15.04-1.14.11-2.22.23-3.28.35-2.8.31-5.44.6-8.02.6ZM21.63,94.61c-3.02,0-5.67.85-7.21,2.63-1.73,1.9-2.2,5.24,1.66,8.92,5.79,5.61,11.29,13.94,17.83,27.02,6.77,16.22,22.73,32.56,43.11,32.56,2.55,0,5.18-.29,7.96-.59,1.06-.12,2.14-.24,3.23-.34,6.3-1.81,14.13-8.67,14.31-14.48.08-.72-.13-1.39-.58-1.89-.45-.5-1.07-.78-1.73-.78-.75-.08-1.39.13-1.9.58-.5.44-.78,1.07-.78,1.73-.2,3.17-6.1,8.49-10.88,9.83-22.49,6.24-40.76-10.27-48.25-28.23-6.71-13.6-12.57-22.46-19-28.7-1.15-1.14-1.37-1.74-1.39-1.81l-.06-.18.14-.13c.2-.21.63-.63,2.04-.83,2.59-.4,6.93.22,10.71,3.24,1.89,1.37,4.8,4,7.92,8.67.85,1.19,2.36,1.48,3.49.67.58-.41.97-.99,1.09-1.63.13-.65-.02-1.31-.42-1.86-2.4-3.76-5.39-7.13-8.92-10.04-3.69-2.85-8.37-4.35-12.38-4.35Z"></path>
        </g>
        <g>
          <path class="cls-2" d="M100.03,111.63c-1.12,0-2.24-.75-2.62-1.68-5.8-14.59-7.48-28.24-8.79-38.15-.56-4.86-1.31-10.29-2.24-11.6-1.5-.56-1.87-.19-2.24,0-3.74,3.55-2.24,21.88-.37,26.18.56,1.5,0,2.99-1.5,3.74-1.5.56-2.99,0-3.74-1.5-1.12-2.62-2.06-9.35-2.24-15.34-.19-8.6,1.12-14.4,3.93-17.21,1.31-1.31,4.11-2.99,8.6-.94,3.37,1.5,4.11,6.73,5.24,15.9,1.31,9.73,2.99,23,8.42,36.84.56,1.5-.19,2.99-1.5,3.55-.19.19-.56.19-.94.19Z"></path>
          <path class="cls-2" d="M100.03,111.94c-1.23,0-2.48-.81-2.9-1.88-5.65-14.2-7.41-27.58-8.7-37.35l-.12-.87c-.48-4.22-1.23-9.94-2.14-11.38-1.13-.41-1.47-.22-1.77-.05l-.09.05c-3.6,3.52-2.09,21.65-.27,25.81.63,1.68-.04,3.34-1.64,4.14-1.69.63-3.35-.03-4.15-1.63-1.1-2.58-2.08-9.22-2.28-15.46-.19-8.71,1.16-14.58,4.02-17.43,1.3-1.31,4.2-3.17,8.95-1,3.47,1.54,4.24,6.6,5.41,16.14l.11.81c1.28,9.51,3.03,22.54,8.29,35.96.59,1.57-.1,3.25-1.61,3.93-.28.23-.7.23-1.1.23ZM85.07,59.59c.35,0,.8.09,1.41.32l.09.03.05.08c.78,1.09,1.49,4.72,2.3,11.74l.11.87c1.28,9.74,3.04,23.08,8.66,37.21.33.83,1.36,1.49,2.33,1.49.26,0,.62,0,.71-.1l.1-.07c1.23-.53,1.81-1.89,1.33-3.16-5.29-13.49-7.04-26.56-8.32-36.1l-.11-.81c-1.14-9.32-1.89-14.25-5.06-15.66-4.41-2.02-7.06-.32-8.26.87-2.73,2.73-4.02,8.44-3.84,16.98.19,6.17,1.15,12.72,2.22,15.22.66,1.32,1.98,1.84,3.35,1.33,1.3-.65,1.83-1.97,1.32-3.34-1.9-4.36-3.43-22.84.45-26.52l.18-.11c.26-.15.54-.27.97-.27Z"></path>
        </g>
      </g>
      <g>
        <g>
          <path class="cls-2" d="M159.13,113.12c-.37,0-.75,0-1.12-.19-1.5-.56-2.06-2.24-1.5-3.74l19.64-46.76c.94-2.43-.19-5.24-2.62-6.36-1.12-.56-2.43-.56-3.74,0-1.12.56-2.06,1.5-2.62,2.62l-18.33,43.39c-.56,1.5-2.24,2.06-3.74,1.5-1.5-.56-2.06-2.24-1.5-3.74l18.33-43.39c1.12-2.62,2.99-4.49,5.61-5.61s5.42-1.12,8.04,0c5.24,2.24,7.85,8.42,5.61,13.65l-19.45,46.94c-.37.94-1.5,1.68-2.62,1.68Z"></path>
          <path class="cls-2" d="M159.13,113.43c-.39,0-.82,0-1.26-.22-.76-.28-1.37-.89-1.67-1.69-.29-.76-.28-1.63.02-2.44l19.64-46.77c.88-2.29-.2-4.91-2.46-5.96-1.05-.53-2.26-.52-3.49,0-1.05.53-1.93,1.41-2.46,2.47l-18.32,43.37c-.29.78-.89,1.39-1.69,1.69-.76.29-1.63.28-2.44-.02-1.59-.59-2.32-2.41-1.68-4.14l18.34-43.4c1.15-2.68,3.09-4.62,5.77-5.77,2.71-1.16,5.57-1.16,8.28,0,2.62,1.12,4.67,3.21,5.78,5.87,1.11,2.68,1.11,5.59,0,8.19l-19.45,46.94c-.43,1.07-1.68,1.87-2.9,1.87ZM171.73,55.36c.68,0,1.34.15,1.94.45,2.55,1.18,3.77,4.14,2.77,6.74l-19.64,46.76c-.25.66-.26,1.37-.02,1.99.24.63.71,1.11,1.34,1.34.34.17.65.17,1.01.17.97,0,2-.65,2.33-1.49l19.45-46.95c1.05-2.45,1.05-5.19,0-7.71-1.04-2.51-2.98-4.48-5.45-5.54-2.55-1.09-5.25-1.09-7.8,0-2.53,1.09-4.37,2.92-5.45,5.45l-18.33,43.39c-.52,1.39.06,2.86,1.32,3.33.67.25,1.38.26,2,.02.63-.24,1.1-.71,1.34-1.34l18.34-43.4c.6-1.2,1.58-2.18,2.76-2.77.7-.3,1.4-.45,2.08-.45Z"></path>
        </g>
        <g>
          <path class="cls-2" d="M146.41,103.77c-.37,0-.75,0-1.12-.19-1.5-.56-2.06-2.24-1.5-3.74l22.44-53.49c.56-1.12.56-2.43,0-3.74-.56-1.31-1.5-2.06-2.62-2.62-2.43-.94-5.24.19-6.36,2.62l-21.13,50.87c-.56,1.5-2.24,2.06-3.74,1.5-1.5-.56-2.06-2.24-1.5-3.74l21.51-50.87c2.24-5.24,8.42-7.85,13.65-5.61,2.62,1.12,4.49,3.18,5.61,5.61,1.12,2.43,1.12,5.42,0,8.04l-22.44,53.49c-.56,1.31-1.68,1.87-2.81,1.87Z"></path>
          <path class="cls-2" d="M146.41,104.08c-.39,0-.82,0-1.26-.22-1.56-.58-2.29-2.4-1.65-4.12l22.45-53.5c.53-1.06.53-2.27,0-3.5-.47-1.08-1.23-1.84-2.47-2.46-2.27-.87-4.89.21-5.94,2.47l-21.13,50.86c-.29.78-.9,1.39-1.69,1.69-.76.29-1.63.28-2.44-.02-.73-.27-1.3-.81-1.63-1.52-.36-.79-.38-1.75-.05-2.62l21.51-50.88c1.12-2.62,3.21-4.67,5.87-5.77,2.68-1.11,5.59-1.11,8.19,0,2.53,1.09,4.53,3.08,5.77,5.76,1.16,2.5,1.16,5.6,0,8.29l-22.44,53.49c-.55,1.29-1.7,2.06-3.09,2.06ZM161.85,39.36c.63,0,1.26.11,1.88.35,1.41.7,2.26,1.56,2.79,2.78.59,1.38.59,2.8,0,4l-22.44,53.47c-.52,1.39.06,2.86,1.32,3.33.34.17.67.17,1.01.17,1.14,0,2.06-.61,2.52-1.68l22.44-53.49c1.09-2.53,1.09-5.45,0-7.79-1.17-2.54-3.06-4.43-5.45-5.46-2.45-1.05-5.19-1.05-7.71,0-2.51,1.04-4.48,2.98-5.54,5.45l-21.51,50.87c-.26.71-.25,1.49.04,2.14.26.56.7.98,1.28,1.2.67.25,1.38.26,2,.02.63-.24,1.1-.71,1.34-1.34l21.14-50.88c.91-1.96,2.85-3.14,4.88-3.14Z"></path>
        </g>
        <g>
          <path class="cls-2" d="M133.7,95.17c-.37,0-.75,0-1.12-.19-1.5-.56-2.06-2.24-1.5-3.74l17.02-40.77c.94-2.43-.19-5.24-2.62-6.36-1.12-.56-2.43-.56-3.74,0-1.12.56-2.06,1.5-2.62,2.62l-17.95,42.27c-.56,1.5-2.24,2.06-3.74,1.5-1.5-.56-2.06-2.24-1.5-3.74l17.95-42.27c1.12-2.62,2.99-4.49,5.61-5.61,2.62-1.12,5.42-1.12,8.04,0,5.24,2.24,7.85,8.42,5.61,13.65l-17.02,40.77c-.37,1.31-1.5,1.87-2.43,1.87Z"></path>
          <path class="cls-2" d="M133.7,95.48c-.39,0-.82,0-1.26-.22-.7-.26-1.27-.8-1.6-1.5-.36-.79-.38-1.75-.05-2.62l17.02-40.78c.88-2.29-.2-4.91-2.46-5.96-1.05-.53-2.26-.52-3.49,0-1.05.53-1.93,1.41-2.46,2.47l-17.95,42.25c-.29.78-.89,1.38-1.69,1.69-.76.29-1.63.28-2.44-.02-1.59-.59-2.32-2.41-1.68-4.14l17.96-42.28c1.15-2.68,3.09-4.63,5.77-5.77,2.71-1.16,5.57-1.16,8.28,0,2.62,1.12,4.67,3.21,5.78,5.87,1.11,2.68,1.11,5.59,0,8.19l-17.02,40.77c-.4,1.41-1.65,2.06-2.71,2.06ZM143.68,43.39c.68,0,1.33.15,1.93.45,2.55,1.18,3.77,4.14,2.77,6.74l-17.02,40.78c-.27.71-.26,1.49.04,2.14.26.56.7.98,1.28,1.2.34.17.65.17,1.01.17.83,0,1.81-.51,2.13-1.65l17.03-40.81c1.05-2.45,1.05-5.19,0-7.71-1.04-2.51-2.98-4.48-5.45-5.54-2.55-1.09-5.25-1.09-7.8,0-2.53,1.08-4.36,2.92-5.45,5.45l-17.96,42.27c-.52,1.39.06,2.86,1.32,3.33.67.25,1.38.26,2,.02.63-.24,1.1-.71,1.34-1.34l17.96-42.28c.6-1.2,1.58-2.18,2.76-2.77.7-.3,1.41-.45,2.08-.45Z"></path>
        </g>
        <g>
          <path class="cls-2" d="M123.04,166.05c-3.55,0-7.29-.56-11.22-1.5-6.55-1.87-14.4-8.6-14.59-14.77,0-1.5,1.12-2.81,2.62-2.99,1.5,0,2.81,1.12,2.99,2.62.19,2.99,5.8,8.23,10.66,9.54,22.26,6.17,40.4-10.1,47.88-27.87,6.92-14.03,12.72-22.63,19.08-28.8,1.31-1.12,1.31-1.87,1.31-1.87,0,0-.56-.37-1.87-.56-2.43-.37-6.73.19-10.47,3.18-1.87,1.5-4.86,4.3-7.85,8.6-.94,1.31-2.62,1.68-3.93.75-1.31-.94-1.68-2.62-.75-3.93,2.62-3.93,5.8-7.48,8.98-10.1,6.55-5.24,16.46-5.98,20.01-1.87,1.68,2.06,2.24,5.61-1.68,9.35-5.98,5.8-11.22,13.84-17.95,27.12-6.92,17.39-22.82,33.1-43.2,33.1Z"></path>
          <path class="cls-2" d="M123.04,166.36c-3.35,0-7.04-.49-11.3-1.51-6.85-1.96-14.63-8.81-14.82-15.07,0-1.68,1.24-3.1,2.89-3.31h0c1.71,0,3.12,1.24,3.33,2.89.17,2.76,5.46,7.94,10.43,9.28,22.07,6.13,40.09-10.07,47.51-27.69,6.75-13.7,12.66-22.6,19.15-28.9.82-.7,1.08-1.23,1.17-1.49-.25-.11-.75-.3-1.56-.42-2.49-.38-6.61.21-10.24,3.11-1.56,1.25-4.65,4.02-7.8,8.54-.53.74-1.27,1.22-2.11,1.36-.77.13-1.58-.06-2.25-.54-1.48-1.06-1.83-2.94-.82-4.36,2.59-3.89,5.8-7.5,9.03-10.16,6.57-5.26,16.7-6.17,20.44-1.83,1.81,2.22,2.32,5.95-1.7,9.78-5.84,5.66-11.02,13.49-17.89,27.03-3.6,9.05-9.51,17.29-16.63,23.17-8,6.61-17.28,10.1-26.85,10.1ZM99.85,147.1c-1.3.16-2.31,1.32-2.31,2.68.18,5.89,7.87,12.62,14.36,14.48,4.19,1,7.84,1.48,11.14,1.48,13.76,0,33.25-8.62,42.92-32.91,6.91-13.63,12.13-21.51,18.03-27.23,3.72-3.54,3.3-6.94,1.66-8.93-3.48-4.03-13.36-3.06-19.58,1.91-3.18,2.62-6.35,6.18-8.91,10.03-.82,1.15-.53,2.65.67,3.51.53.38,1.16.53,1.79.43.67-.11,1.28-.5,1.71-1.11,3.18-4.58,6.32-7.39,7.91-8.67,3.78-3.03,8.14-3.64,10.71-3.24,1.36.19,1.97.59,1.99.61l.14.09v.16c0,.09-.04.92-1.41,2.1-6.42,6.23-12.29,15.09-19,28.7-7.52,17.85-25.84,34.24-48.23,28.03-4.88-1.31-10.68-6.54-10.89-9.82-.17-1.32-1.32-2.33-2.68-2.33Z"></path>
        </g>
        <g>
          <path class="cls-2" d="M100.03,111.63c-.37,0-.75,0-1.12-.19-1.5-.56-2.06-2.24-1.5-3.55,5.42-13.84,7.11-27.12,8.42-36.84,1.12-9.16,1.87-14.21,5.24-15.9,4.49-2.06,7.29-.19,8.6.94,2.81,2.81,4.3,8.6,3.93,17.21-.19,5.98-1.12,12.72-2.24,15.34-.56,1.5-2.24,2.06-3.74,1.5-1.5-.56-2.06-2.24-1.5-3.74,1.87-4.3,3.37-22.63-.37-26.18-.19-.19-.75-.75-2.24,0-.94,1.31-1.5,6.73-2.24,11.6-1.31,9.91-2.99,23.56-8.79,38.15-.19,1.12-1.31,1.68-2.43,1.68Z"></path>
          <path class="cls-2" d="M100.03,111.94c-.39,0-.82,0-1.26-.22-.73-.27-1.32-.84-1.63-1.58-.33-.76-.33-1.62,0-2.37,5.26-13.41,7.01-26.44,8.28-35.95l.11-.81c1.15-9.4,1.91-14.39,5.4-16.13,3.38-1.55,6.38-1.22,8.94.98,3.01,3.01,4.4,9.04,4.03,17.45-.19,6.24-1.17,12.88-2.27,15.44-.59,1.57-2.4,2.31-4.13,1.66-.79-.3-1.4-.9-1.7-1.7-.29-.76-.28-1.63.02-2.44,1.82-4.19,3.33-22.4-.3-25.85-.16-.16-.58-.58-1.82.02-.67,1.05-1.18,4.67-1.68,8.17-.15,1.07-.31,2.16-.47,3.23l-.11.87c-1.29,9.77-3.05,23.15-8.7,37.35-.2,1.28-1.51,1.88-2.71,1.88ZM114.9,54.53c-1.17,0-2.41.3-3.71.89-3.2,1.6-3.93,6.47-5.06,15.65l-.11.82c-1.28,9.54-3.04,22.61-8.33,36.1-.26.6-.26,1.29,0,1.9.25.59.72,1.03,1.32,1.26.34.17.65.17,1.01.17.94,0,1.96-.44,2.12-1.43,5.63-14.19,7.39-27.53,8.67-37.27l.11-.87c.17-1.07.32-2.16.47-3.23.57-3.98,1.05-7.42,1.83-8.5l.11-.1c1.13-.56,2-.54,2.6.06,3.86,3.67,2.34,22.15.44,26.52-.25.66-.26,1.37-.02,1.99.24.63.71,1.11,1.34,1.34,1.39.52,2.87-.05,3.34-1.32,1.08-2.52,2.03-9.06,2.22-15.24.36-8.24-.97-14.11-3.84-16.98-1.37-1.18-2.9-1.77-4.55-1.77Z"></path>
        </g>
      </g>
      <g>
        <path class="cls-2" d="M100.03,152.4c-.94,0-1.68-.37-2.43-.94,0,0-5.24-4.11-11.6-7.67-9.73-5.61-20.95-13.84-20.95-28.24,0-5.42,1.87-10.1,5.24-13.65,3.55-3.55,8.6-5.42,13.84-5.42,3.55,0,7.11.94,10.1,2.62,4.49,2.43,6.92,5.98,8.42,8.42.75,1.31.19,2.99-1.12,3.74-1.31.75-2.99.19-3.74-1.12-.94-1.87-2.99-4.49-6.17-6.17-2.24-1.12-4.68-1.87-7.48-1.87-3.93,0-7.48,1.31-9.91,3.93-2.43,2.43-3.55,5.61-3.55,9.54,0,11.6,9.73,18.7,18.14,23.38,5.8,3.37,10.66,6.92,11.97,7.85,1.31.19,2.24,1.31,2.24,2.81-.19,1.5-1.5,2.81-2.99,2.81Z"></path>
        <path class="cls-2" d="M100.03,152.71c-1.14,0-2-.53-2.62-1-.06-.04-5.3-4.14-11.56-7.64-9.83-5.67-21.1-14.03-21.1-28.51,0-5.4,1.84-10.19,5.32-13.87,3.51-3.51,8.63-5.52,14.06-5.52,3.56,0,7.2.94,10.25,2.66,4.36,2.36,6.85,5.79,8.53,8.52.82,1.45.27,3.31-1.23,4.17-1.44.82-3.3.26-4.16-1.24-.46-.92-2.24-4.04-6.05-6.05-2.46-1.23-4.87-1.83-7.33-1.83-3.95,0-7.39,1.36-9.69,3.83-2.34,2.34-3.47,5.39-3.47,9.33,0,11.76,10.26,18.82,17.98,23.11,5.38,3.12,9.93,6.39,11.64,7.62l.29.21c1.44.24,2.43,1.51,2.43,3.1-.21,1.73-1.69,3.11-3.3,3.11ZM84.13,96.79c-5.27,0-10.23,1.94-13.62,5.33-3.36,3.55-5.15,8.2-5.15,13.43,0,14.16,11.11,22.39,20.79,27.97,6.31,3.52,11.58,7.65,11.63,7.69.81.61,1.48.87,2.24.87,1.31,0,2.51-1.14,2.68-2.53,0-1.29-.8-2.29-1.98-2.46l-.13-.05-.36-.25c-1.71-1.22-6.24-4.48-11.59-7.59-7.85-4.36-18.29-11.56-18.29-23.64,0-4.11,1.19-7.3,3.64-9.76,2.4-2.59,6-4.02,10.13-4.02,2.57,0,5.06.62,7.62,1.9,3.98,2.11,5.84,5.36,6.31,6.31.67,1.17,2.2,1.63,3.31.99,1.19-.68,1.65-2.2,1.01-3.32-1.64-2.65-4.06-6.01-8.3-8.3-2.96-1.67-6.49-2.58-9.95-2.58Z"></path>
      </g>
      <g>
        <path class="cls-2" d="M100.03,152.4c-1.5,0-2.81-1.31-2.81-2.81,0-1.31.94-2.43,2.24-2.81,1.31-1.12,6.17-4.49,11.97-7.85,8.42-4.86,18.14-11.78,18.14-23.38,0-3.93-1.31-7.29-3.55-9.54-2.43-2.43-5.98-3.93-9.91-3.93-2.62,0-5.24.56-7.48,1.87-3.18,1.68-5.05,4.3-6.17,6.17-.75,1.31-2.43,1.87-3.74,1.12-1.31-.75-1.87-2.43-1.12-3.74,1.31-2.62,3.93-5.98,8.42-8.42,2.99-1.68,6.55-2.62,10.1-2.62,5.42,0,10.47,2.06,13.84,5.42,3.37,3.37,5.24,8.23,5.24,13.65,0,14.59-11.22,22.82-20.95,28.24-6.36,3.55-11.41,7.48-11.6,7.67-.94.56-1.68.94-2.62.94Z"></path>
        <path class="cls-2" d="M100.03,152.71c-1.66,0-3.11-1.46-3.11-3.11,0-1.41.96-2.64,2.4-3.08,1.45-1.22,6.34-4.58,11.97-7.84,8.89-5.14,17.99-11.91,17.99-23.11,0-3.78-1.23-7.09-3.46-9.32-2.44-2.44-5.97-3.84-9.69-3.84-2.74,0-5.28.63-7.33,1.83-2.4,1.27-4.38,3.25-6.06,6.06-.39.69-1.07,1.23-1.83,1.47-.8.25-1.63.16-2.33-.24-.7-.4-1.24-1.07-1.47-1.84-.25-.8-.16-1.62.24-2.33,1-1.99,3.44-5.77,8.54-8.53,3.04-1.71,6.68-2.66,10.25-2.66,5.43,0,10.55,2.01,14.06,5.51,3.44,3.44,5.33,8.36,5.33,13.87,0,14.83-11.28,23.03-21.1,28.51-6.28,3.51-11.28,7.38-11.53,7.62-.95.58-1.78,1.02-2.84,1.02ZM116.12,101.78c3.88,0,7.58,1.46,10.13,4.02,2.35,2.35,3.64,5.81,3.64,9.76,0,11.52-9.25,18.42-18.3,23.64-5.66,3.29-10.56,6.65-11.92,7.82l-.12.06c-1.21.35-2.02,1.35-2.02,2.51,0,1.33,1.17,2.5,2.5,2.5.82,0,1.5-.31,2.46-.89.13-.14,5.15-4.07,11.6-7.67,9.68-5.4,20.79-13.46,20.79-27.97,0-5.34-1.83-10.12-5.15-13.43-3.39-3.39-8.36-5.33-13.62-5.33-3.46,0-6.99.92-9.95,2.58-4.95,2.68-7.32,6.34-8.29,8.29-.33.57-.39,1.22-.19,1.85.19.62.63,1.16,1.19,1.48.55.31,1.2.38,1.84.18.62-.19,1.16-.63,1.48-1.19,1.75-2.92,3.81-4.98,6.3-6.29,2.13-1.24,4.78-1.91,7.63-1.91Z"></path>
      </g>
    </g>
  </g>
</svg>