<svg xmlns="http://www.w3.org/2000/svg" viewBox="0 0 200 200">
  <defs>
    <style>
      .cls-1 {
        fill: none;
      }

      .cls-2 {
        fill: #515b1e;
      }
    </style>
  </defs>
  <rect class="cls-1" width="200" height="200"></rect>
  <g id="Layer_1" data-name="Layer 1">
    <g>
      <g>
        <path class="cls-2" d="M130.41,143.22c1.32-3.2,1.65-6.58,1.06-9.79,1.37.35,2.78.55,4.22.55,1.89,0,3.8-.31,5.67-.94,6.58-2.22,11.1-7.9,11.8-14.81.37-3.67.74-6.5,1.11-8.4.36-1.85,1.02-4.49,1.99-7.87,1.9-6.69-.2-13.64-5.49-18.13-2.63-2.24-5.74-3.59-8.97-4.03,1.75-2.77,2.7-6.05,2.66-9.53-.08-6.95-4.08-13-10.44-15.8-3.38-1.49-5.96-2.72-7.65-3.65-1.63-.9-3.94-2.35-6.87-4.32-5.77-3.88-13.03-4.02-18.94-.38-2.94,1.81-5.19,4.34-6.61,7.28-2.1-2.52-4.92-4.44-8.24-5.47-6.63-2.07-13.63-.14-18.26,5.04-2.46,2.76-4.43,4.83-5.84,6.14-1.36,1.28-3.46,3.03-6.23,5.2-5.47,4.29-7.85,11.15-6.21,17.9.81,3.36,2.53,6.28,4.88,8.53-3.05,1.22-5.74,3.31-7.76,6.15-4.02,5.67-4.34,12.92-.85,18.92,1.86,3.19,3.22,5.7,4.04,7.45.79,1.69,1.81,4.23,3.02,7.53,2.39,6.53,8.18,10.91,15.1,11.44.46.04.93.05,1.38.05,2.95,0,5.75-.75,8.24-2.09.21,3.28,1.37,6.51,3.45,9.31,3.37,4.53,8.49,7.06,13.93,7.06,1.25,0,2.53-.13,3.8-.41,3.61-.78,6.42-1.3,8.34-1.54,1.85-.23,4.57-.42,8.09-.54,6.95-.26,12.9-4.41,15.55-10.83h0ZM147.24,87.97c3.65,3.1,5.1,7.89,3.78,12.49-1.01,3.53-1.71,6.33-2.09,8.33-.4,2.07-.79,5.05-1.18,8.88-.48,4.76-3.6,8.67-8.13,10.2-4.42,1.49-9.13.35-12.39-2.96-.08-.09-.15-.2-.23-.29l-14.35-15.3c.27-.35.53-.71.77-1.09l19.33,8.14c.34.15.7.21,1.05.21,1.06,0,2.07-.63,2.51-1.67.58-1.39-.07-2.98-1.45-3.57l-19.32-8.14c.1-.43.18-.87.25-1.31l20.97-.42c1.5-.03,2.7-1.27,2.67-2.78-.03-1.48-1.24-2.67-2.72-2.67h-.06l-20.96.42c-.08-.43-.19-.86-.31-1.28l19.03-8.91c.1-.05.19-.11.28-.16,4.24-1.84,9.01-1.16,12.56,1.85h0ZM103.42,50.74c4.07-2.51,9.08-2.41,13.05.26,3.06,2.06,5.51,3.59,7.28,4.57,1.83,1.01,4.55,2.31,8.08,3.87,4.38,1.93,7.14,6.1,7.19,10.88.05,4.67-2.49,8.79-6.64,10.87-.12.05-.24.08-.35.14l-18.98,8.92c-.26-.37-.52-.73-.8-1.07l13.71-15.86c.98-1.14.86-2.86-.28-3.84-1.14-.98-2.85-.86-3.84.28l-13.72,15.87c-.38-.23-.77-.45-1.17-.65l6.08-20.07c.44-1.44-.38-2.96-1.82-3.39-1.43-.43-2.96.38-3.39,1.82l-6.08,20.07c-.43-.05-.87-.09-1.31-.11l-2.59-20.86c-.01-.11-.05-.22-.07-.33-.44-4.6,1.69-8.92,5.64-11.36h0ZM99.71,88.69c5.97,0,10.82,4.85,10.82,10.82,0,1.48-.3,2.89-.84,4.18,0,0,0,.01-.01.02,0,0,0,.02,0,.02-1.65,3.87-5.49,6.59-9.96,6.59-5.96,0-10.82-4.85-10.82-10.82s4.85-10.82,10.82-10.82h0ZM58.76,68.58c2.9-2.27,5.11-4.12,6.59-5.51,1.53-1.43,3.6-3.61,6.17-6.49,3.19-3.57,8-4.9,12.58-3.48,4.45,1.39,7.59,5.08,8.28,9.66.01.13,0,.25.02.38l2.61,20.79c-.43.13-.85.28-1.26.45l-10.85-17.94c-.78-1.29-2.45-1.7-3.74-.92-1.29.78-1.7,2.45-.92,3.74l10.85,17.95c-.34.29-.67.59-.98.91l-17.21-11.98c-1.24-.86-2.93-.56-3.79.68-.86,1.23-.56,2.93.68,3.79l17.21,11.98c-.19.4-.36.8-.51,1.21l-20.63-3.98c-.11-.02-.21-.02-.32-.04-4.51-1-7.98-4.36-9.07-8.88-1.13-4.65.51-9.38,4.28-12.33h0ZM79.42,130.6c-.05.1-.09.2-.14.3-2.35,3.98-6.59,6.23-11.24,5.88-4.77-.36-8.76-3.38-10.41-7.88-1.26-3.45-2.34-6.13-3.2-7.97-.89-1.9-2.33-4.55-4.27-7.88-2.41-4.13-2.18-9.13.58-13.03,2.7-3.81,7.19-5.65,11.77-4.89.12.03.23.07.35.09l20.59,3.94c0,.11-.02.23-.02.34,0,.34.03.66.05.99l-20.42,4.77c-1.46.34-2.37,1.81-2.03,3.27.29,1.25,1.41,2.1,2.65,2.1.2,0,.41-.02.62-.07l20.41-4.77c.17.41.37.81.58,1.21l-16.71,12.66c-1.2.91-1.43,2.61-.52,3.81.54.71,1.35,1.08,2.17,1.08.57,0,1.15-.18,1.64-.55l16.72-12.67c.32.3.64.59.99.86l-10.16,18.39ZM106.09,149.19c-2.08.26-5.04.8-8.81,1.62-4.68,1.01-9.36-.74-12.21-4.58-2.79-3.74-3.15-8.58-1.01-12.7.06-.11.14-.2.2-.31l10.12-18.37c.42.15.85.27,1.28.38l-1.77,20.9c-.13,1.5.99,2.82,2.48,2.94.08,0,.16,0,.23,0,1.4,0,2.59-1.07,2.71-2.49l1.77-20.89c.45-.04.89-.1,1.32-.17l6.88,19.81c.39,1.13,1.44,1.83,2.57,1.83.3,0,.6-.05.89-.15,1.42-.49,2.17-2.05,1.68-3.46l-6.88-19.8c.38-.21.76-.44,1.13-.68l14.35,15.34c.09.1.19.18.28.27,3.03,3.46,3.84,8.19,2.08,12.47-1.82,4.42-5.93,7.28-10.71,7.46-3.68.13-6.56.33-8.57.58Z"></path>
        <path class="cls-2" d="M94.63,156.79c-5.6,0-10.75-2.61-14.14-7.17-1.99-2.68-3.19-5.8-3.47-9.06-2.49,1.27-5.25,1.94-8.01,1.94-.5,0-.96-.02-1.41-.05-7.03-.54-12.9-4.99-15.32-11.61-1.21-3.3-2.22-5.83-3.01-7.51-.81-1.73-2.17-4.23-4.03-7.43-3.55-6.09-3.22-13.45.86-19.2,1.93-2.71,4.52-4.81,7.51-6.09-2.28-2.28-3.9-5.17-4.68-8.38-1.66-6.85.76-13.81,6.3-18.16,2.75-2.16,4.84-3.9,6.22-5.18,1.41-1.32,3.36-3.38,5.82-6.13,4.7-5.26,11.8-7.22,18.52-5.12,3.18.99,5.98,2.81,8.11,5.26,1.46-2.88,3.71-5.3,6.53-7.03,6-3.7,13.37-3.55,19.22.38,2.9,1.96,5.21,3.4,6.85,4.31,1.69.93,4.25,2.16,7.62,3.64,6.45,2.84,10.51,8.99,10.59,16.04.04,3.33-.82,6.55-2.5,9.34,3.19.51,6.19,1.9,8.71,4.03,5.37,4.56,7.5,11.61,5.57,18.4-.96,3.37-1.63,6-1.98,7.84-.36,1.91-.73,4.73-1.1,8.38-.71,7.01-5.3,12.77-11.98,15.03-3.1,1.05-6.3,1.27-9.65.49.51,3.19.12,6.49-1.15,9.55l-.49,1.2v-.1c-2.88,5.89-8.64,9.65-15.28,9.89-3.52.13-6.23.31-8.07.54-1.9.24-4.69.75-8.31,1.54-1.27.28-2.57.42-3.85.42ZM77.48,139.75l.02.4c.21,3.29,1.38,6.47,3.4,9.17,3.29,4.42,8.29,6.96,13.73,6.96,1.25,0,2.51-.14,3.75-.41,3.64-.79,6.45-1.31,8.36-1.54,1.85-.23,4.58-.42,8.11-.55,6.84-.25,12.71-4.34,15.32-10.67l.08-.19c1.21-3.04,1.55-6.3.97-9.45l-.07-.39.39.1c3.39.86,6.62.67,9.75-.39,6.48-2.19,10.94-7.78,11.63-14.6.37-3.66.74-6.49,1.11-8.42.36-1.85,1.03-4.51,1.99-7.89,1.87-6.59-.2-13.44-5.41-17.87-2.55-2.16-5.6-3.54-8.84-3.97l-.39-.05.21-.34c1.75-2.78,2.66-6.03,2.62-9.39-.08-6.85-4.02-12.81-10.29-15.57-3.39-1.49-5.97-2.73-7.67-3.66-1.65-.91-3.97-2.37-6.89-4.33-5.69-3.82-12.84-3.96-18.67-.37-2.84,1.75-5.09,4.23-6.51,7.17l-.17.36-.26-.31c-2.11-2.53-4.91-4.39-8.12-5.39-6.55-2.04-13.43-.14-17.99,4.97-2.46,2.76-4.43,4.83-5.85,6.16-1.38,1.29-3.49,3.05-6.25,5.21-5.39,4.23-7.74,10.99-6.12,17.64.79,3.25,2.45,6.15,4.81,8.41l.29.27-.37.15c-3.05,1.22-5.69,3.32-7.64,6.06-3.96,5.58-4.28,12.73-.83,18.64,1.87,3.21,3.23,5.72,4.05,7.47.8,1.7,1.82,4.24,3.03,7.55,2.36,6.43,8.06,10.75,14.88,11.28.44.03.88.05,1.37.05,2.85,0,5.58-.69,8.11-2.06l.35-.19ZM94.67,151.35c-3.83,0-7.43-1.78-9.8-4.96-2.82-3.79-3.22-8.76-1.04-12.97.04-.06.07-.11.11-.17.03-.05.07-.1.09-.15l10.22-18.56.2.07c.41.14.82.27,1.26.38l.21.05-.02.22-1.77,20.9c-.12,1.35.9,2.55,2.25,2.67.07,0,.14,0,.21,0,1.27,0,2.35-.99,2.45-2.26l1.79-21.11.22-.02c.4-.03.82-.09,1.3-.17l.22-.04.07.2,6.88,19.81c.34.99,1.28,1.66,2.33,1.66.28,0,.55-.05.81-.14.62-.22,1.12-.66,1.41-1.25.29-.59.33-1.26.11-1.89l-6.95-20.01.19-.1c.36-.2.72-.42,1.11-.67l.18-.12.15.16,14.35,15.34c.04.05.09.09.14.14.04.04.09.08.13.13,3.1,3.54,3.91,8.42,2.13,12.74-1.86,4.52-6.05,7.44-10.94,7.62-3.64.13-6.52.33-8.55.58h0c-2.09.26-5.04.81-8.79,1.62-.89.19-1.79.29-2.67.29ZM94.49,115.16l-10.01,18.18c-.04.07-.08.13-.12.19-.03.04-.06.08-.08.13-2.09,4.02-1.71,8.78,1,12.42,2.79,3.75,7.34,5.47,11.95,4.48,3.76-.82,6.73-1.36,8.83-1.63h0c2.05-.25,4.94-.45,8.6-.58,4.68-.17,8.7-2.97,10.48-7.3,1.71-4.14.93-8.82-2.04-12.2-.03-.03-.07-.07-.11-.1-.06-.05-.12-.11-.17-.16l-14.2-15.18c-.26.17-.52.33-.77.47l6.81,19.6c.26.75.22,1.56-.13,2.28-.35.72-.95,1.25-1.7,1.51-.31.11-.64.16-.98.16-1.27,0-2.4-.8-2.81-2l-6.82-19.61c-.32.05-.63.09-.92.12l-1.75,20.68c-.13,1.53-1.43,2.73-2.96,2.73-.08,0-.17,0-.25-.01-1.64-.14-2.85-1.58-2.72-3.22l1.76-20.68c-.3-.08-.6-.17-.89-.27ZM68.96,137.08c-.31,0-.62-.01-.94-.04-4.87-.37-8.95-3.46-10.63-8.05-1.26-3.45-2.34-6.13-3.19-7.95-.88-1.88-2.31-4.53-4.26-7.86-2.46-4.22-2.23-9.32.59-13.31,2.74-3.85,7.34-5.77,12.02-4.99.08.02.14.03.2.05.05.02.1.03.16.04l20.8,3.98v.21c0,.06,0,.13,0,.19,0,.05,0,.1,0,.15,0,.25.02.5.04.75l.03.45-20.63,4.82c-.64.15-1.19.54-1.53,1.1-.35.56-.46,1.22-.31,1.86.31,1.3,1.61,2.14,2.96,1.84l20.61-4.82.08.2c.15.35.33.72.57,1.19l.1.19-.17.13-16.71,12.67c-1.08.82-1.3,2.37-.47,3.46.47.61,1.2.98,1.97.98.54,0,1.05-.17,1.49-.5l16.89-12.8.16.15c.36.34.67.61.97.85l.17.13-.1.19-10.16,18.39s-.04.08-.06.13c-.02.06-.05.12-.08.17-2.24,3.79-6.21,6.05-10.54,6.05ZM60.5,95.22c-3.77,0-7.31,1.8-9.55,4.95-2.7,3.82-2.92,8.71-.57,12.75,1.95,3.35,3.39,6.01,4.28,7.9.86,1.84,1.94,4.52,3.21,7.99,1.61,4.41,5.51,7.36,10.18,7.72,4.49.34,8.71-1.87,11-5.76.02-.03.04-.08.05-.12.02-.06.05-.12.08-.17h0s10.06-18.21,10.06-18.21c-.22-.18-.44-.37-.67-.59l-16.55,12.54c-.52.4-1.15.61-1.8.61-.93,0-1.81-.44-2.37-1.18-.99-1.31-.73-3.18.57-4.17l16.54-12.53c-.16-.31-.29-.58-.4-.84l-20.2,4.72c-1.64.37-3.21-.65-3.58-2.22-.18-.78-.05-1.58.37-2.25.42-.68,1.07-1.15,1.85-1.33l20.21-4.73c-.02-.26-.04-.52-.04-.79,0-.04,0-.09,0-.13l-20.37-3.9c-.07-.01-.14-.03-.21-.05-.05-.01-.1-.03-.15-.04-.66-.11-1.31-.16-1.96-.16ZM135.76,128.77c-3.22,0-6.35-1.28-8.71-3.67-.05-.06-.09-.11-.13-.16-.03-.04-.07-.09-.11-.13l-14.5-15.46.13-.17c.3-.4.54-.74.76-1.07l.12-.18.2.08,19.33,8.14c.3.13.62.19.96.19.99,0,1.89-.59,2.28-1.51.52-1.25-.07-2.7-1.32-3.23l-19.52-8.22.05-.21c.09-.38.17-.79.24-1.29l.03-.21h.21s20.97-.43,20.97-.43c1.36-.03,2.44-1.16,2.42-2.52-.03-1.33-1.13-2.42-2.46-2.42l-21.23.43-.04-.21c-.07-.38-.17-.79-.3-1.26l-.06-.21,19.23-9s.09-.05.13-.07c.05-.03.1-.06.15-.08,4.33-1.89,9.25-1.16,12.84,1.88l.09.08c3.65,3.17,5.1,8.01,3.77,12.68-1,3.5-1.7,6.29-2.09,8.31-.39,2.06-.79,5.04-1.17,8.86-.5,4.86-3.68,8.85-8.31,10.42-1.3.44-2.63.65-3.94.65ZM112.98,109.31l14.2,15.15c.05.05.1.11.14.17.03.04.06.08.1.12,3.18,3.23,7.83,4.33,12.12,2.89,4.44-1.5,7.48-5.32,7.96-9.98.38-3.83.78-6.83,1.18-8.91.39-2.03,1.1-4.84,2.1-8.35,1.28-4.51-.13-9.2-3.7-12.23l-.09-.08c-3.42-2.85-8.09-3.52-12.2-1.74-.02.01-.06.04-.1.06-.06.03-.12.07-.18.1l-18.83,8.82c.08.31.16.6.21.88l20.74-.42c1.67,0,3,1.31,3.04,2.92.03,1.64-1.28,3-2.92,3.04l-20.76.42c-.05.33-.11.63-.17.91l19.13,8.06c1.51.64,2.23,2.39,1.59,3.9-.47,1.11-1.55,1.82-2.75,1.82-.4,0-.79-.08-1.16-.23l-19.13-8.06c-.16.24-.33.48-.53.75ZM99.71,110.58c-6.11,0-11.08-4.97-11.08-11.08s4.97-11.08,11.08-11.08h.26c5.99.14,10.82,5.06,10.82,11.08,0,1.48-.29,2.92-.86,4.28l-.03.06c-1.76,4.1-5.75,6.73-10.18,6.73ZM99.48,88.94c-5.72.12-10.34,4.81-10.34,10.56s4.74,10.56,10.56,10.56c4.24,0,8.06-2.53,9.73-6.44l.02-.06c.54-1.29.81-2.65.81-4.06,0-5.82-4.74-10.56-10.56-10.56h-.22ZM84.66,94.09l-.22-.04-20.63-3.98s-.09-.01-.14-.02c-.06,0-.12-.01-.18-.02-4.62-1.02-8.17-4.5-9.28-9.07-1.15-4.75.53-9.58,4.38-12.59l.13-.1h0c2.83-2.22,5-4.03,6.45-5.39,1.51-1.42,3.58-3.59,6.16-6.48,3.25-3.64,8.17-5,12.84-3.55,4.5,1.41,7.75,5.19,8.46,9.87,0,.08,0,.15,0,.21,0,.06,0,.12,0,.18l2.64,21.01-.21.06c-.47.14-.91.31-1.24.44l-.2.08-.11-.18-10.85-17.94c-.71-1.16-2.22-1.54-3.39-.84-1.16.7-1.54,2.22-.83,3.39l10.96,18.13-.16.14c-.37.32-.69.61-.97.89l-.15.15-.18-.12-17.21-11.98c-1.11-.77-2.65-.5-3.44.62-.37.54-.52,1.2-.4,1.85.12.65.48,1.21,1.02,1.59l17.39,12.11-.09.2c-.19.41-.36.8-.5,1.19l-.07.2ZM58.79,68.88c-3.6,2.9-5.16,7.47-4.07,11.97,1.06,4.38,4.46,7.71,8.88,8.69.03,0,.08,0,.12.01.06,0,.12.01.19.02l20.42,3.94c.11-.27.22-.55.35-.83l-17.04-11.86c-.65-.45-1.09-1.13-1.23-1.92-.14-.78.03-1.58.49-2.23.94-1.35,2.8-1.68,4.15-.74l17.03,11.86c.2-.2.43-.41.67-.63l-10.74-17.76c-.85-1.4-.4-3.24,1.01-4.09,1.4-.85,3.24-.4,4.09,1.01l10.74,17.76c.26-.1.56-.21.87-.31l-2.58-20.58c0-.08-.01-.15-.01-.23,0-.05,0-.1,0-.16-.68-4.47-3.79-8.1-8.1-9.45-4.47-1.39-9.19-.09-12.31,3.4-2.59,2.89-4.67,5.08-6.19,6.51-1.49,1.39-3.71,3.25-6.61,5.52l-.13.1h0ZM112.96,90.56l-.12-.18c-.28-.4-.54-.75-.79-1.05l-.14-.17,13.85-16.02c.89-1.03.78-2.59-.25-3.48-.5-.43-1.1-.65-1.79-.59-.66.05-1.26.35-1.69.85l-13.86,16.03-.18-.11c-.4-.24-.77-.45-1.15-.64l-.19-.1,6.14-20.28c.39-1.3-.35-2.68-1.65-3.07-1.29-.39-2.67.35-3.07,1.65l-6.14,20.28-.21-.03c-.38-.05-.79-.08-1.29-.1h-.22s-.02-.22-.02-.22l-2.59-20.86c0-.05-.02-.1-.03-.15-.01-.06-.02-.11-.03-.17-.45-4.65,1.71-9.06,5.63-11.54h0s.12-.08.12-.08c4.16-2.57,9.27-2.46,13.33.27,3.06,2.06,5.5,3.59,7.26,4.56,1.82,1,4.53,2.3,8.06,3.86,4.47,1.97,7.29,6.23,7.34,11.12.06,4.72-2.54,8.97-6.77,11.1-.07.03-.13.05-.19.07-.06.02-.11.04-.17.06l-19.18,9.01ZM112.58,89.17c.18.23.36.47.55.74l18.78-8.82c.07-.03.14-.06.22-.08.05-.02.1-.03.14-.06,4.05-2.03,6.54-6.1,6.48-10.63-.05-4.68-2.75-8.76-7.03-10.65-3.54-1.56-6.27-2.87-8.11-3.88-1.76-.97-4.22-2.51-7.29-4.58-3.85-2.59-8.69-2.71-12.65-.33h0s-.12.08-.12.08c-3.83,2.36-5.95,6.62-5.52,11.12,0,.03.01.08.02.12.02.07.03.13.04.2l2.57,20.64c.33.02.63.04.9.07l6.02-19.86c.48-1.57,2.13-2.46,3.71-1.99,1.57.48,2.46,2.14,1.99,3.71l-6.02,19.87c.27.14.53.29.81.45l13.57-15.71c.52-.6,1.24-.97,2.04-1.02.77-.06,1.56.2,2.16.72,1.24,1.07,1.38,2.96.3,4.2l-13.57,15.69Z"></path>
      </g>
      <path class="cls-2" d="M100,188.51c-48.8,0-88.51-39.71-88.51-88.51S51.2,11.49,100,11.49s88.51,39.71,88.51,88.51-39.71,88.51-88.51,88.51ZM100,17.24c-45.63,0-82.75,37.12-82.75,82.76s37.12,82.76,82.75,82.76,82.75-37.12,82.75-82.76S145.63,17.24,100,17.24Z"></path>
    </g>
  </g>
</svg>