<svg id="eZEYj2t9keq1" xmlns="http://www.w3.org/2000/svg" xmlns:xlink="http://www.w3.org/1999/xlink" viewBox="0 0 400 400" shape-rendering="geometricPrecision" text-rendering="geometricPrecision" project-id="a6212e6a1c424440a9c5b14a4024942c" export-id="397c055eb4204a43bc8f33e4e1e48b25" cached="false" fill="none"><path fill="currentColor" fill-rule="evenodd" d="M259.453125,333.558594c9.289063,10.003906,18.917969,19.917968,29.128906,28.949218l22.949219-22.980468c4.570312-6.542969-1.210938-13.792969-8.582031-10.464844l-21.253907,21.082031-5.265624-4.792969-.332032-2.046874l19.234375-19.066407c13.863281-12.746093,33.53125,3.050781,23.902344,19.277344L294.519531,368.625L317.875,392.121094c11.726562,13.203125-1.296875,31.726562-16.898438,25.34375-3.019531-1.238282-19.574218-17.628906-22.660156-21.066406-.441406-.496094-1.757812-2.121094-1.621094-2.65625l5.578126-5.53125L303.960938,409.5c6.980468,2.5625,12.292968-3.578125,8.828124-10.089844l-24.300781-24.28125-39.691406,38.605469L210.25,375.882812l-23.582031,23.527344c-4.472657,6.929688,3.144531,13.710938,9.828125,9.226563l20.601562-20.457031l5.890625,5.90625c-7.03125,6.039062-13.40625,14.835937-20.492187,20.566406-15.226563,12.3125-34.175782-6.199219-21.453125-22.128906c6.40625-8.027344,16.554687-14.886719,22.644531-23.269532-.285156-1.625-20.375-19.808594-23.265625-23.441406-12.660156-15.863281,6.023437-34.167969,20.839844-22.761719c7.199219,5.535157,13.914062,15.246094,21.109375,21.195313l-6.453125,5.890625-21.28125-21.070313c-6.1875-3.246094-12.804688,3.636719-8.933594,9.574219l24.558594,24.59375l32.585937-32.78125c.210938-1.195313-11.878906-12.03125-13.609375-14.253906-10.832031-13.890625-4.8125-34.882813,12.136719-40.136719c24.046875-7.453125,43.273438,20.59375,27.324219,40.46875-1.734375,2.164062-12.441407,11.742188-12.65625,12.851562-.375,1.929688,2.542969,3.234376,3.414062,4.175782h-.003906Zm-13.625-49.90625c-12.296875,2.101562-17.402344,17.273437-10.035156,27.210937c1.207031,1.632813,12.601562,13.257813,13.53125,13.089844c8.222656-8.617187,20.785156-16.167969,15.234375-30.085937-2.96875-7.425782-10.890625-11.550782-18.730469-10.214844Zm3.667969,52.84375l-32.671875,32.746094L248.875,401.816406l33.121094-32.742187-32.5-32.578125Zm0,0" transform="matrix(2.681946 0 0 2.681955-468.682664-730.097664)"/></svg>
